<svg width="500" height="500" viewBox="0 0 500 500" fill="none" xmlns="http://www.w3.org/2000/svg">
<path d="M254.935 433.136C232.515 433.136 215.387 430.001 208.557 428.615C183.783 423.582 135.895 413.856 101.273 373.141C48.8933 311.544 57.0496 214.499 97.6791 150.438C105.111 138.72 144.368 73.6833 224.156 63.2534C232.075 62.2183 240.218 61.6941 248.463 61.6941C289.125 61.6941 332.485 74.3989 366.121 101.073C343.744 138.753 324.652 198.088 355.234 271.663C355.992 273.487 357.722 274.485 359.486 274.485C360.14 274.485 360.798 274.348 361.414 274.065C361.199 345.628 343.244 380.499 319.717 401.383C319.087 401.941 318.701 402.588 318.516 403.257C317.624 404.011 317.446 405.241 318.164 406.209C318.552 406.733 319.133 407.088 319.772 407.244C320.418 407.807 321.25 408.16 322.184 408.16C322.644 408.16 323.128 408.074 323.626 407.885C339.566 401.832 361.621 390.327 379.285 369.349C417.749 323.67 428.494 267.539 431.237 217.725C441.465 279.88 425.432 345.098 391.435 380.889C383.843 388.881 376.66 394.035 370.985 398.108C331.435 426.485 287.579 433.136 254.935 433.136Z" fill="url(#paint0_linear_156_1529)"/>
<path d="M355.235 271.663C356.491 274.688 360.427 275.445 362.747 273.134C375.544 260.382 408.469 221.055 402.17 159.006C396.852 106.607 398.946 77.6887 400.807 64.6267C401.201 61.8652 397.84 60.2062 395.883 62.1941C374.292 84.1335 309.697 162.105 355.235 271.663Z" fill="#91B3FA"/>
<path d="M360.321 271.666C360.178 271.666 360.031 271.642 359.887 271.589C359.807 271.561 359.733 271.526 359.664 271.484C359.15 271.175 358.908 270.538 359.119 269.953C359.166 269.824 359.995 267.498 361.317 263.36C361.371 265.968 361.402 268.538 361.412 271.056C361.178 271.437 360.761 271.666 360.321 271.666ZM381.997 153.41C382.536 142.935 382.598 132.275 382.003 121.659C381.964 120.954 382.503 120.35 383.207 120.311C383.232 120.31 383.256 120.309 383.279 120.309C383.953 120.309 384.517 120.836 384.555 121.516C385.066 130.629 385.097 139.78 384.759 148.813C383.822 150.313 382.904 151.84 381.997 153.41Z" fill="#C0D6FC"/>
<path d="M435.31 103.569C436.058 101.307 432.945 99.4839 430.811 100.921C409.151 115.508 356.244 160.257 360.724 247.073C365.372 337.177 346.03 378.027 319.717 401.383C316.505 404.233 319.612 409.41 323.627 407.886C339.566 401.832 361.621 390.328 379.286 369.349C456.504 277.646 422.012 143.783 435.31 103.569Z" fill="#7D97F4"/>
<path d="M319.772 407.244C319.134 407.087 318.553 406.733 318.165 406.209C317.446 405.241 317.624 404.011 318.516 403.257C318.112 404.72 318.673 406.284 319.772 407.244Z" fill="url(#paint1_linear_156_1529)"/>
<path d="M320.527 407.334C320.272 407.334 320.018 407.303 319.772 407.244C318.673 406.284 318.112 404.72 318.516 403.257C318.631 403.16 318.756 403.071 318.894 402.993L318.902 402.988C321.77 401.331 324.611 399.649 327.352 397.861C328.74 396.985 330.078 396.058 331.438 395.154C332.753 394.203 334.115 393.299 335.395 392.315C340.593 388.457 345.461 384.279 349.939 379.802C358.938 370.899 366.411 360.749 372.338 350.066C375.232 344.693 377.658 339.133 379.575 333.42C381.489 327.706 382.894 321.844 383.911 315.899C385.947 304.003 386.586 291.827 387.292 279.621C388.018 267.414 388.842 255.152 390.251 242.953C390.935 236.853 391.748 230.766 392.685 224.697C393.133 221.66 393.651 218.633 394.16 215.607C394.705 212.584 395.268 209.563 395.86 206.55C398.253 194.497 401.071 182.524 404.326 170.655C407.647 158.799 411.332 147.034 415.538 135.422C415.635 135.158 415.914 134.991 416.22 134.991C416.298 134.991 416.377 135.001 416.457 135.024C416.832 135.134 417.046 135.479 416.947 135.802C413.356 147.554 410.035 159.365 407.222 171.278C404.337 183.173 401.872 195.147 399.844 207.181C397.869 219.222 396.156 231.299 395.042 243.434C393.864 255.562 393.291 267.735 392.765 279.96C392.16 292.172 391.631 304.48 389.643 316.747C387.673 328.988 383.974 341.186 377.792 352.379C376.248 355.167 374.639 357.942 372.853 360.602C371.125 363.294 369.256 365.916 367.334 368.507C363.457 373.674 359.171 378.618 354.472 383.255C345.044 392.508 333.958 400.474 321.946 406.982C321.507 407.221 321.016 407.334 320.527 407.334Z" fill="#B3C4F9"/>
<path d="M361.023 258.284C361.023 258.284 363.096 409.484 330.379 421.19C327.709 422.147 325.364 421.922 323.291 421.116C299.991 412.097 311.288 301.573 280.295 293.54H246.741C212.996 302.019 229.392 432.664 196.666 420.966C194.826 420.31 193.101 419.324 191.477 417.837C191.369 417.735 191.253 417.687 191.146 417.585C164.181 391.832 166.022 258.24 166.022 258.24C137.896 212.891 145.124 151.407 145.124 151.407C142.563 113.377 189.222 81.5688 216.319 98.1443C232.956 108.326 251.59 112.519 263.518 114.251C273.383 112.819 287.838 109.706 301.956 102.908C304.906 101.493 307.849 99.9138 310.725 98.151C337.822 81.5756 384.482 113.391 381.92 151.421C381.92 151.421 389.14 212.935 361.023 258.284Z" fill="white"/>
<path d="M361.023 258.284C361.023 258.284 363.096 409.484 330.379 421.19C327.709 422.147 325.364 422.147 323.291 421.341C349.643 399.152 334.109 283.578 326.433 268.694C318.691 253.675 340.806 226.01 349.925 173.049C359.042 120.088 301.955 102.91 301.955 102.91C304.905 101.496 307.849 99.9152 310.725 98.1524C337.822 81.5755 384.483 113.392 381.921 151.422C381.921 151.422 389.14 212.935 361.023 258.284Z" fill="#BDD0FB"/>
<path d="M184.489 200.542C184.489 200.542 184.526 200.565 184.557 200.613L184.551 200.625C184.581 200.668 184.6 200.74 184.6 200.825V200.83L184.617 200.922C184.617 201.012 184.635 201.127 184.659 201.253L184.668 201.307C184.981 203.164 186.72 208.249 188.584 214.829C188.601 214.883 188.615 214.943 188.632 214.997C192.813 229.761 198.856 251.919 200.677 262.208C200.677 262.208 203.91 263.195 208.927 264.535H208.939C216.189 266.319 227.129 267.636 237.31 264.97C237.31 264.97 242.78 220.35 236.152 181.655C236.152 181.655 218.764 177.334 199.996 176.152C199.899 176.147 199.803 176.009 199.706 176.003C198.193 175.919 196.673 175.733 195.152 175.733H193.946C193.778 175.733 193.615 175.733 193.446 175.733H193.416C192.638 175.733 191.233 176.488 189.592 177.182C189.545 177.199 189.447 177.269 189.447 177.294L189.43 177.271C189.43 177.271 189.146 177.458 189.019 177.513C188.833 177.592 188.639 177.701 188.441 177.798C188.398 177.821 188.35 177.854 188.307 177.873C188.29 177.885 188.266 177.896 188.247 177.908C188.12 177.974 187.988 178.043 187.849 178.109C187.819 178.121 187.795 178.135 187.771 178.147C187.615 178.225 187.457 178.31 187.294 178.395C187.27 178.407 187.396 178.419 187.373 178.437C187.186 178.534 186.945 178.636 186.752 178.738C186.577 178.829 186.443 178.926 186.431 179.028L186.408 178.872C186.317 178.919 186.221 178.974 186.131 179.028L186.106 179.04C185.105 179.625 184.098 180.307 183.163 181.102L183.151 181.121C183.139 181.139 183.121 181.163 183.109 181.182C178.906 188.166 176.951 199.606 184.489 200.542Z" fill="url(#paint2_linear_156_1529)"/>
<path d="M140.569 212.116C159.485 210.115 168.364 195.542 175.395 186.274C184.678 174.038 194.926 176.152 194.926 176.152L188.654 203.151C174.619 225.515 154.543 226.578 141.049 224.022C139.67 219.48 139.899 215.321 140.569 212.116Z" fill="#7D97F4"/>
<path d="M112.155 207.907L119.037 209.586C127.425 212.112 134.51 212.757 140.569 212.116C139.899 215.321 139.67 219.48 141.049 224.022C132.458 222.395 126.533 219.301 126.533 219.301C110.736 214.701 112.155 207.907 112.155 207.907Z" fill="#7D97F4"/>
<path d="M96.5806 221.039C96.6336 219.642 97.3189 218.345 98.4433 217.514L109.415 209.4C109.415 209.4 109.192 207.78 106.14 207.434C103.089 207.088 102.929 203.813 102.929 203.813C102.929 203.813 107.168 204.555 113.429 205.854C117.01 206.598 119.51 208.904 120.996 210.743L118.92 215.71C111.958 219.943 104.429 222.364 96.4882 223.468L96.5806 221.039Z" fill="url(#paint3_linear_156_1529)"/>
<path d="M193.229 176.007C193.295 176.001 193.356 176.001 193.416 176.001C193.434 175.995 193.446 175.995 193.464 175.989L193.229 176.007Z" fill="url(#paint4_linear_156_1529)"/>
<path d="M189.423 175.802L189.448 175.814V175.79L189.423 175.802Z" fill="url(#paint5_linear_156_1529)"/>
<path d="M200.516 386.388C200.516 386.388 201.499 391.947 201.98 397.45C202.168 399.601 200.509 401.468 198.353 401.558C191.024 401.864 175.349 402.457 169.725 402.206C168.879 402.169 168.326 401.302 168.639 400.516C168.902 399.857 169.407 399.325 170.051 399.028L195.945 387.128L200.516 386.388Z" fill="url(#paint6_linear_156_1529)"/>
<path d="M201.321 383.123L200.532 389.771C200.532 389.771 195.996 391.883 192.899 389.506L194.776 382.096L201.321 383.123Z" fill="url(#paint7_linear_156_1529)"/>
<path d="M200.728 258.112C201.069 259.848 202.557 344.764 193.48 382.818C193.332 383.439 193.647 384.08 194.237 384.321C195.629 384.89 198.36 385.713 201.631 385.823C202.643 385.857 203.551 385.198 203.837 384.226C206.431 375.398 218.865 331.16 220.487 288.903C222.299 241.685 220.487 287.295 220.487 287.295L219.423 258.108L200.728 258.112Z" fill="url(#paint8_linear_156_1529)"/>
<path d="M230.302 389.288C230.302 389.288 231.865 392.094 233.379 399.552C233.651 400.899 232.71 402.187 231.342 402.322C228.923 402.561 225.198 402.866 222.214 402.845C220.838 402.835 219.764 401.639 219.93 400.273C220.261 397.551 221.291 393.085 224.472 389.604L230.302 389.288Z" fill="url(#paint9_linear_156_1529)"/>
<path d="M231.675 380.736L229.832 390.791C229.832 390.791 228.008 392.147 224.403 391.165L225.283 380.345L231.675 380.736Z" fill="url(#paint10_linear_156_1529)"/>
<path d="M236.655 260.717C244.078 305.52 235.044 371.45 231.997 384.355C231.811 385.144 231.174 385.751 230.372 385.883C229.012 386.108 226.774 386.293 224.566 385.651C223.806 385.43 223.271 384.744 223.24 383.953C222.832 373.52 223.567 309.473 216.65 284.162C216.299 282.879 215.516 281.76 214.433 280.991L201.007 271.446L199.977 256.018L236.655 260.717Z" fill="url(#paint11_linear_156_1529)"/>
<path d="M227.612 203.209L236.146 181.666C236.146 181.666 256.926 195.786 260.344 213.687C256.416 213.977 249.272 214.997 242.279 218.53C240.741 210.077 227.612 203.209 227.612 203.209Z" fill="#91B3FA"/>
<path d="M211.885 157.763L218.964 178.235C219.081 178.574 218.942 178.949 218.628 179.123C216.698 180.19 209.747 183.274 201.369 177.962C200.496 177.408 199.902 176.507 199.769 175.481L197.477 157.763H211.885Z" fill="url(#paint12_linear_156_1529)"/>
<path d="M225.321 179.361L216.873 172.187L204.237 203.038L213.451 325.63L242.222 326.489C242.426 326.496 242.623 326.418 242.767 326.274C242.91 326.13 242.988 325.933 242.981 325.729L238.964 207.788C238.964 207.788 238.854 182.305 236.145 181.666C233.437 181.028 225.321 179.361 225.321 179.361Z" fill="#91B3FA"/>
<path d="M184.586 200.625L184.6 200.825V200.83L184.617 200.922L184.659 201.253L184.788 201.307L187.276 225.648V225.66L197.203 327.218C197.228 327.423 197.24 327.604 197.396 327.731C197.554 327.852 197.716 327.906 197.915 327.876L213.472 325.632L208.942 264.67L208.931 264.58L204.131 201.452L199.771 176.104V176.092L199.232 172.189L195.097 175.868L195.058 175.875L193.872 175.941L193.384 175.965C192.613 176.17 189.449 177.364 189.449 177.364C189.449 177.381 188.344 177.859 187.814 178.112C187.783 178.124 187.778 178.136 187.753 178.148C187.596 178.226 187.449 178.311 187.286 178.395C187.261 178.407 187.441 178.419 187.416 178.438C187.092 178.619 186.83 178.817 186.83 179.028V179.04L184.888 200.542L184.728 200.613L184.586 200.625Z" fill="#7D97F4"/>
<path d="M199.325 202.788V205.788L188.616 205.121V201.788L199.325 202.788Z" fill="url(#paint13_linear_156_1529)"/>
<path d="M204.919 210.059C204.84 210.059 204.761 210.016 204.722 209.941C204.663 209.833 204.703 209.697 204.813 209.639L214.423 204.479L215.768 195.421C215.783 195.326 215.856 195.251 215.95 195.235L219.572 194.59L223.278 182.553C223.314 182.435 223.438 182.368 223.557 182.404C223.674 182.441 223.74 182.566 223.704 182.683L219.958 194.852C219.934 194.933 219.867 194.992 219.784 195.007L216.186 195.646L214.848 204.655C214.837 204.724 214.795 204.784 214.733 204.818L205.024 210.032C204.99 210.05 204.954 210.059 204.919 210.059Z" fill="white"/>
<path d="M202.612 207.081C202.554 207.081 202.497 207.051 202.466 206.997L197.332 197.996C197.313 197.962 197.306 197.923 197.311 197.885L198.146 192.877L194.023 190.683C193.965 190.652 193.93 190.59 193.935 190.524L194.988 175.858C194.995 175.765 195.074 175.699 195.166 175.703C195.259 175.71 195.328 175.79 195.321 175.881L194.276 190.439L198.41 192.639C198.473 192.673 198.508 192.743 198.496 192.814L197.652 197.881L202.757 206.83C202.803 206.911 202.775 207.013 202.695 207.059C202.669 207.074 202.64 207.081 202.612 207.081Z" fill="white"/>
<path d="M209.427 222.848C209.427 222.848 232.757 236.034 240.631 224.775C242.264 222.437 242.655 220.113 242.253 217.897C249.247 214.366 256.391 213.346 260.318 213.057C261.348 218.453 260.803 224.193 257.632 229.995C243.842 255.22 206.34 228.6 206.34 228.6L209.427 222.848Z" fill="#91B3FA"/>
<path d="M212.23 239.53L199.497 195.062C199.352 194.557 198.922 194.189 198.4 194.128C196.093 193.858 189.408 193.104 181.69 192.45C172.392 191.664 161.596 191.027 155.144 191.569C154.226 191.646 153.673 192.616 154.081 193.441C157.749 200.864 172.841 231.057 180.398 240.947C180.648 241.275 181.035 241.468 181.447 241.464L210.992 241.189C211.85 241.181 212.466 240.356 212.23 239.53Z" fill="url(#paint14_linear_156_1529)"/>
<path d="M180.369 188.596L171.137 187.057C170.646 186.974 170.243 187.445 170.399 187.918L171.313 190.687C171.392 190.929 171.602 191.102 171.854 191.136L180.738 192.323C181.198 192.384 181.577 191.966 181.47 191.515L180.906 189.097C180.844 188.837 180.633 188.639 180.369 188.596Z" fill="url(#paint15_linear_156_1529)"/>
<path d="M187.282 196.411L186.522 192.449C186.445 192.051 186.117 191.752 185.714 191.71L167.069 189.818C166.441 189.755 165.938 190.33 166.085 190.943L167.271 195.88C167.365 196.275 167.709 196.561 168.115 196.581L186.336 197.497C186.93 197.528 187.394 196.993 187.282 196.411Z" fill="url(#paint16_linear_156_1529)"/>
<path d="M209.154 228.786C209.154 228.786 210.927 221.492 210.211 218.904C209.496 216.317 208.11 212.991 203.489 213.729C198.869 214.469 193.418 216.415 193.418 216.415C193.418 216.415 193.693 219.786 197.205 218.698L195.027 220.383C195.027 220.383 195.338 223.082 198.304 221.64L196.279 223.875C196.279 223.875 197.554 226.092 199.736 224.67C201.918 223.248 202.965 229.664 209.154 228.786Z" fill="url(#paint17_linear_156_1529)"/>
<path d="M231.388 229.318C224.327 229.318 215.356 225.902 214.867 225.714C214.744 225.673 211.662 224.604 210.499 222.333C210.442 222.224 210.485 222.089 210.596 222.032C210.705 221.976 210.84 222.02 210.895 222.129C211.977 224.241 214.988 225.284 215.018 225.294C215.181 225.357 230.561 231.213 236.809 227.783C236.918 227.724 237.052 227.764 237.112 227.872C237.171 227.98 237.132 228.115 237.023 228.174C235.52 229 233.543 229.318 231.388 229.318Z" fill="white"/>
<path d="M239.805 240.884H239.796C221.902 240.438 211.679 232.136 211.578 232.053C211.482 231.974 211.469 231.879 211.547 231.783C211.625 231.689 211.765 231.697 211.861 231.775C211.961 231.857 222.078 239.997 239.813 240.608C239.935 240.612 240.032 240.629 240.027 240.753C240.023 240.873 239.924 240.884 239.805 240.884Z" fill="white"/>
<path d="M193.195 138.358C193.195 138.358 189.78 150.775 190.315 156.958C190.852 163.142 190.1 167.311 197.371 167.531C204.64 167.752 210.109 163.363 212.473 156.788C212.473 156.788 216.197 146.647 214.507 142.954C212.818 139.26 193.195 138.358 193.195 138.358Z" fill="url(#paint18_linear_156_1529)"/>
<path d="M222.167 139.049C220.619 138.085 219.611 138.418 219.022 138.903C218.856 139.04 218.651 139.045 218.487 138.964C218.47 138.78 217.295 126.089 199.995 128.322C198.198 128.554 196.437 127.675 195.542 126.1C193.496 122.497 189.616 117.201 186.686 122.376C182.518 129.736 181.28 139.396 193.086 141.398C193.786 141.516 194.491 141.611 195.198 141.686C200.071 142.888 205.623 143.267 207.681 143.786C211.117 144.652 208.491 152.648 208.491 152.648L209.388 152.52L211.299 152.247C211.577 152.206 211.846 152.52 211.869 152.801L212.313 158.263C212.333 158.499 212.519 158.712 212.753 158.737C213.627 158.833 215.894 158.747 219.379 156.19C222.786 153.69 221.151 152.421 220.108 151.935C219.811 151.798 219.753 151.411 219.974 151.17C224.625 146.105 224.86 140.725 222.167 139.049Z" fill="url(#paint19_linear_156_1529)"/>
<path d="M209.36 153.895C209.36 153.895 210.233 146.151 213.88 147.765C217.527 149.38 213.34 156.38 210.689 157.044L209.36 153.895Z" fill="url(#paint20_linear_156_1529)"/>
<path d="M190.022 139.055C190.081 139.047 190.136 139.018 190.177 138.966C190.259 138.863 190.241 138.712 190.138 138.628C187.651 136.662 186.284 134.387 186.078 131.869C185.717 127.489 189.015 123.805 189.049 123.768C189.138 123.668 189.131 123.518 189.032 123.427C188.933 123.338 188.78 123.345 188.693 123.443C188.55 123.6 185.222 127.314 185.597 131.904C185.815 134.563 187.243 136.951 189.838 139.005C189.892 139.049 189.96 139.065 190.022 139.055Z" fill="#BDD0FB"/>
<path d="M302.459 117.791L233.067 98.7211L235.411 90.7763L305.637 109.846L302.459 117.791Z" fill="#7D97F4"/>
<path d="M307.09 405.771C307.09 407.658 305.667 409.188 303.913 409.188C302.157 409.188 300.735 407.658 300.735 405.771V129.027C300.735 127.139 302.157 125.609 303.913 125.609C305.667 125.609 307.09 127.139 307.09 129.027V405.771Z" fill="#7D97F4"/>
<path d="M202.47 251.815C200.288 249.805 197.349 248.826 194.398 249.128L112.273 257.445C110.767 257.598 108.738 258.867 108.738 260.379V261.911C108.738 262.749 109.98 263.548 110.605 264.109C111.23 264.668 112.507 264.935 113.34 264.844L188.146 256.567C190.138 256.346 192.235 257.024 193.677 258.418C195.119 259.81 195.919 261.774 195.767 263.772L193.708 291.112C196.054 295.962 199.014 295.842 201.329 294.571C203.683 293.28 205.178 290.818 205.232 288.133L205.806 259.641C205.865 256.675 204.652 253.825 202.47 251.815Z" fill="url(#paint21_linear_156_1529)"/>
<path d="M140.886 343.752L206.043 391.437L233.685 363L168.35 334.008L140.886 343.752Z" fill="url(#paint22_linear_156_1529)"/>
<path d="M262.969 301.828L119.531 298.914C119.531 298.914 118.348 328.46 122.51 339.279C126.671 350.1 163.74 353.429 173.311 339.279C178.65 331.39 187.625 325.053 194.509 320.991C200.133 317.67 206.412 316.194 212.919 316.751L281.433 322.634V315.976L262.969 301.828Z" fill="url(#paint23_linear_156_1529)"/>
<path d="M161.832 321.524C161.832 328.419 156.241 334.008 149.346 334.008C142.451 334.008 136.863 328.419 136.863 321.524C136.863 314.629 142.451 309.04 149.346 309.04C156.241 309.04 161.832 314.629 161.832 321.524Z" fill="#91B3FA"/>
<path d="M160.306 321.593C160.306 327.608 155.43 332.483 149.416 332.483C143.403 332.483 138.527 327.608 138.527 321.593C138.527 315.58 143.403 310.705 149.416 310.705C155.43 310.705 160.306 315.58 160.306 321.593Z" fill="#7D97F4"/>
<path d="M345.922 331.373C344.628 328.756 291.146 299.403 273.925 290.001C270.433 288.096 266.582 287.097 262.605 287.045L144.883 285.523C141.801 285.483 138.966 283.828 137.416 281.163L98.3003 213.883L87.8038 175.833C86.2382 170.156 80.4147 166.782 74.7119 168.244L73.6198 168.524C67.9155 169.987 64.4348 175.749 65.7956 181.478L73.8867 215.547L115.921 300.14C117.369 303.054 120.311 304.927 123.565 305.004L253.368 308.082C256.85 308.164 260.275 308.995 263.41 310.518L329.322 342.518C333.759 344.673 339.061 343.965 342.778 340.724C345.594 338.266 347.72 335.009 345.922 331.373Z" fill="url(#paint24_linear_156_1529)"/>
<path d="M307.966 418.04H307.926C307.07 418.04 306.251 418.264 305.651 417.654C305.053 417.042 304.724 416.5 304.741 415.644C305.011 402.013 293.323 384.756 283.493 372.492C275.929 363.054 264.491 357.799 252.395 357.799H242.67C236.221 357.799 229.869 359.26 224.16 362.256L116.196 418.298C115.739 418.536 115.231 418.04 114.715 418.04H92.8212C88.7991 418.04 85.5385 422.007 85.5385 426.028C85.5385 429.361 88.2402 432.767 91.5726 432.767H309.214C312.547 432.767 315.249 429.361 315.249 426.028C315.249 422.007 311.988 418.04 307.966 418.04Z" fill="#7D97F4"/>
<path d="M309.992 133.58C309.992 136.651 307.503 139.142 304.43 139.142H303.505C300.434 139.142 297.943 136.651 297.943 133.58V108.558C297.943 105.487 300.434 102.996 303.505 102.996H304.43C307.503 102.996 309.992 105.487 309.992 108.558V133.58Z" fill="url(#paint25_linear_156_1529)"/>
<path d="M308.654 260.757C308.654 263.829 306.163 266.319 303.092 266.319H302.167C299.096 266.319 296.605 263.829 296.605 260.757V235.736C296.605 232.664 299.096 230.174 302.167 230.174H303.092C306.163 230.174 308.654 232.664 308.654 235.736V260.757Z" fill="url(#paint26_linear_156_1529)"/>
<path d="M252.216 121.452C254.248 125.407 253.054 130.074 249.771 131.762C246.486 133.449 241.997 131.702 239.965 127.745L213.919 77.0513C211.887 73.0957 213.079 68.4286 216.364 66.7413C219.648 65.054 224.136 66.8006 226.17 70.7575L252.216 121.452Z" fill="url(#paint27_linear_156_1529)"/>
<path d="M213.151 75.0054L212.171 78.6537C211.69 80.6254 211.907 82.5162 212.786 84.3477L232.617 126.359C234.08 129.407 237.16 132.001 240.542 132.001H242.073L213.151 75.0054Z" fill="url(#paint28_linear_156_1529)"/>
<path d="M332.001 302.069C331.917 302.096 248.977 268.267 239.737 266.208C238.183 265.861 210.306 262.224 210.306 262.224L205.085 281.915L244.945 283.96C253.297 298.511 293.053 298.708 307.02 299.202C308.438 299.252 309.518 300.485 309.38 301.896L308.776 308.046C318.671 309.314 327.849 307.916 336.332 303.949L332.001 302.069Z" fill="url(#paint29_linear_156_1529)"/>
<path d="M309.232 304.625C309.232 304.625 307.631 306.999 308.402 309.476C308.77 310.662 309.956 311.403 311.195 311.35C316.708 311.113 334.752 310.152 341.379 307.542C341.922 307.327 342.028 306.6 341.578 306.229C340.324 305.197 337.479 303.403 331.745 302.005L332.411 302.325C333.255 302.729 333.074 303.98 332.15 304.12C326.965 304.908 316.164 306.204 309.232 304.625Z" fill="url(#paint30_linear_156_1529)"/>
<path d="M330.047 315.12C329.961 315.136 314.069 308.09 313.981 308.108C283.922 285.356 251.166 272.537 242.204 269.489C240.695 268.977 239.321 268.223 236.412 268.57L203.563 264.217L207.399 289.708L239.984 286.615C246.713 301.983 291.69 307.566 305.523 309.568C306.927 309.771 307.868 311.113 307.577 312.502L306.311 318.55C316.012 320.88 325.287 320.484 334.15 317.456L330.047 315.12Z" fill="url(#paint31_linear_156_1529)"/>
<path d="M307.135 315.198C307.135 315.198 305.287 317.384 305.784 319.931C306.023 321.15 307.121 322.015 308.36 322.096C313.865 322.455 331.907 323.453 338.778 321.574C339.341 321.419 339.526 320.709 339.117 320.291C337.982 319.129 335.348 317.038 329.799 315.028L330.427 315.418C331.222 315.911 330.907 317.135 329.973 317.174C324.735 317.396 313.856 317.518 307.135 315.198Z" fill="url(#paint32_linear_156_1529)"/>
<path d="M123.299 258.663C123.299 258.663 116.995 279.128 125.881 289.523C130.204 294.58 145.7 291.736 158.088 291.404C191.918 290.499 207.728 290.752 215.093 290.83C216.342 290.844 217.197 289.598 216.763 288.427C213.822 280.48 215.287 271.202 217.223 263.404C217.492 262.321 216.7 261.265 215.584 261.214C201.972 260.578 141.93 250.412 139.761 247.007C137.028 242.713 123.299 258.663 123.299 258.663Z" fill="url(#paint33_linear_156_1529)"/>
<path d="M89.9605 172.415C89.9605 172.415 78.7147 171.279 80.4981 184.286C80.8212 186.64 75.8412 189.253 77.2094 193.515C77.9159 195.716 77.148 198.096 75.2225 199.373C70.427 202.557 63.7133 208.923 66.5934 218.476C68.7915 225.767 73.481 226.745 77.5572 225.947C80.551 225.361 83.5489 227.148 84.2627 230.115C84.9473 232.96 87.1194 235.608 92.7317 235.899C105.309 236.549 107.077 213.906 107.077 213.906L94.6105 181.578L89.9605 172.415Z" fill="url(#paint34_linear_156_1529)"/>
<path d="M139.53 243.044C139.53 243.044 140.229 226.214 139.199 216.508C138.643 211.261 135.571 206.617 130.977 204.023C122.587 199.287 112.435 195.795 111.08 195.032C109.005 193.865 99.2355 203.439 99.2355 203.439C99.2355 203.439 92.0221 234.707 104.983 263.334L116.093 257.738C116.093 257.738 112.952 244.376 112.735 234.16C112.735 234.16 116.381 259.251 120.593 264.217L139.53 243.044Z" fill="url(#paint35_linear_156_1529)"/>
<path d="M159.429 230.187L145.907 229.387L140.276 238.793C140.276 238.793 132.73 248.745 126.323 252.279C119.915 255.814 119.915 255.814 119.915 255.814L104.983 263.334L108.105 270.171C108.897 271.907 110.745 272.899 112.631 272.612C114.306 272.359 116.22 272.008 117.275 271.616C119.426 270.817 152.297 238.171 152.297 238.171L159.429 230.187Z" fill="url(#paint36_linear_156_1529)"/>
<path d="M94.5652 185.081L99.8357 203.763C102.866 206.024 109.697 199.567 109.192 196.956C109.141 196.69 109.019 196.443 108.876 196.214L104.892 184.178C104.287 183.213 99.4834 182.637 98.3888 182.95L94.4097 184.092C92.8775 184.531 97.0582 180.408 94.5652 185.081Z" fill="url(#paint37_linear_156_1529)"/>
<path d="M98.0507 167.044C98.0507 167.044 103.691 168.664 108.275 175.98C112.859 183.297 110.565 187.205 107.201 188.109C103.837 189.013 98.7088 189.555 92.6902 185.198C86.6714 180.84 90.75 165.198 98.0507 167.044Z" fill="url(#paint38_linear_156_1529)"/>
<path d="M95.8311 180.619C95.8311 180.619 90.4146 169.76 100.458 168.414L103.025 169.783C103.025 169.783 105.958 163.047 99.538 160.774C93.1178 158.5 86.3261 161.836 84.7315 170.309C83.1368 178.782 83.3548 184.298 88.1147 187.686C92.8744 191.074 94.1086 186.434 94.1086 186.434C94.1086 186.434 91.3328 183.063 92.0483 180.995C92.7635 178.926 95.241 181.019 95.241 181.019L95.8311 180.619Z" fill="url(#paint39_linear_156_1529)"/>
<path d="M94.8553 182.019C94.8553 182.019 92.1036 176.421 89.6528 179.077C87.202 181.733 92.5232 184.209 94.5813 184.97L94.8553 182.019Z" fill="url(#paint40_linear_156_1529)"/>
<path d="M101.64 207.206C106.318 216.266 112.395 222.93 121.096 225.105L138.699 207.206C128.719 203.9 121.27 199.43 116.919 193.532L101.64 207.206Z" fill="#BDD0FB"/>
<defs>
<linearGradient id="paint0_linear_156_1529" x1="482.361" y1="542.767" x2="151.846" y2="132.289" gradientUnits="userSpaceOnUse">
<stop stop-color="#DAE3FE"/>
<stop offset="1" stop-color="#E9EFFD"/>
</linearGradient>
<linearGradient id="paint1_linear_156_1529" x1="482.348" y1="542.76" x2="151.846" y2="132.313" gradientUnits="userSpaceOnUse">
<stop stop-color="#ECF1FE"/>
<stop offset="1" stop-color="#F4F7FE"/>
</linearGradient>
<linearGradient id="paint2_linear_156_1529" x1="239.431" y1="221.108" x2="179.393" y2="221.108" gradientUnits="userSpaceOnUse">
<stop stop-color="#09005D"/>
<stop offset="1" stop-color="#1A0F91"/>
</linearGradient>
<linearGradient id="paint3_linear_156_1529" x1="76.3328" y1="192.027" x2="187.752" y2="277.262" gradientUnits="userSpaceOnUse">
<stop stop-color="#FEBBBA"/>
<stop offset="1" stop-color="#FF928E"/>
</linearGradient>
<linearGradient id="paint4_linear_156_1529" x1="193.464" y1="175.997" x2="193.228" y2="175.997" gradientUnits="userSpaceOnUse">
<stop stop-color="#09005D"/>
<stop offset="1" stop-color="#1A0F91"/>
</linearGradient>
<linearGradient id="paint5_linear_156_1529" x1="189.463" y1="175.838" x2="189.491" y2="175.882" gradientUnits="userSpaceOnUse">
<stop stop-color="#53EAC9"/>
<stop offset="0.996377" stop-color="#45AED8"/>
<stop offset="1" stop-color="#45AED8"/>
</linearGradient>
<linearGradient id="paint6_linear_156_1529" x1="170.545" y1="378.705" x2="265.363" y2="481.841" gradientUnits="userSpaceOnUse">
<stop stop-color="#09005D"/>
<stop offset="1" stop-color="#1A0F91"/>
</linearGradient>
<linearGradient id="paint7_linear_156_1529" x1="201.321" y1="386.365" x2="192.899" y2="386.365" gradientUnits="userSpaceOnUse">
<stop stop-color="#FEBBBA"/>
<stop offset="1" stop-color="#FF928E"/>
</linearGradient>
<linearGradient id="paint8_linear_156_1529" x1="386.189" y1="397.962" x2="98.3786" y2="274.806" gradientUnits="userSpaceOnUse">
<stop stop-color="#4F52FF"/>
<stop offset="1" stop-color="#4042E2"/>
</linearGradient>
<linearGradient id="paint9_linear_156_1529" x1="191.815" y1="359.15" x2="286.633" y2="462.287" gradientUnits="userSpaceOnUse">
<stop stop-color="#09005D"/>
<stop offset="1" stop-color="#1A0F91"/>
</linearGradient>
<linearGradient id="paint10_linear_156_1529" x1="231.675" y1="385.934" x2="224.403" y2="385.934" gradientUnits="userSpaceOnUse">
<stop stop-color="#FEBBBA"/>
<stop offset="1" stop-color="#FF928E"/>
</linearGradient>
<linearGradient id="paint11_linear_156_1529" x1="389.154" y1="391.034" x2="101.344" y2="267.878" gradientUnits="userSpaceOnUse">
<stop stop-color="#4F52FF"/>
<stop offset="1" stop-color="#4042E2"/>
</linearGradient>
<linearGradient id="paint12_linear_156_1529" x1="240.76" y1="185.972" x2="230.507" y2="180.544" gradientUnits="userSpaceOnUse">
<stop stop-color="#FEBBBA"/>
<stop offset="1" stop-color="#FF928E"/>
</linearGradient>
<linearGradient id="paint13_linear_156_1529" x1="200.853" y1="208.908" x2="162.733" y2="181.475" gradientUnits="userSpaceOnUse">
<stop stop-color="#9CFFFB"/>
<stop offset="1" stop-color="#9BFFFA"/>
</linearGradient>
<linearGradient id="paint14_linear_156_1529" x1="189.865" y1="188.243" x2="159.924" y2="312.998" gradientUnits="userSpaceOnUse">
<stop stop-color="#4F52FF"/>
<stop offset="1" stop-color="#4042E2"/>
</linearGradient>
<linearGradient id="paint15_linear_156_1529" x1="174.829" y1="134.222" x2="175.424" y2="164.269" gradientUnits="userSpaceOnUse">
<stop stop-color="#4F52FF"/>
<stop offset="1" stop-color="#4042E2"/>
</linearGradient>
<linearGradient id="paint16_linear_156_1529" x1="175.501" y1="134.208" x2="176.096" y2="164.255" gradientUnits="userSpaceOnUse">
<stop stop-color="#4F52FF"/>
<stop offset="1" stop-color="#4042E2"/>
</linearGradient>
<linearGradient id="paint17_linear_156_1529" x1="210.381" y1="221.247" x2="193.417" y2="221.247" gradientUnits="userSpaceOnUse">
<stop stop-color="#FEBBBA"/>
<stop offset="1" stop-color="#FF928E"/>
</linearGradient>
<linearGradient id="paint18_linear_156_1529" x1="193.601" y1="148.799" x2="225.873" y2="166.89" gradientUnits="userSpaceOnUse">
<stop stop-color="#FEBBBA"/>
<stop offset="1" stop-color="#FF928E"/>
</linearGradient>
<linearGradient id="paint19_linear_156_1529" x1="183.422" y1="118.538" x2="246.277" y2="179.273" gradientUnits="userSpaceOnUse">
<stop stop-color="#09005D"/>
<stop offset="1" stop-color="#1A0F91"/>
</linearGradient>
<linearGradient id="paint20_linear_156_1529" x1="196.534" y1="143.569" x2="228.805" y2="161.661" gradientUnits="userSpaceOnUse">
<stop stop-color="#FEBBBA"/>
<stop offset="1" stop-color="#FF928E"/>
</linearGradient>
<linearGradient id="paint21_linear_156_1529" x1="255.433" y1="105.395" x2="207.239" y2="188.395" gradientUnits="userSpaceOnUse">
<stop stop-color="#09005D"/>
<stop offset="1" stop-color="#1A0F91"/>
</linearGradient>
<linearGradient id="paint22_linear_156_1529" x1="206.879" y1="312.79" x2="281.847" y2="157.498" gradientUnits="userSpaceOnUse">
<stop stop-color="#09005D"/>
<stop offset="1" stop-color="#1A0F91"/>
</linearGradient>
<linearGradient id="paint23_linear_156_1529" x1="263.888" y1="193.533" x2="216.587" y2="280.996" gradientUnits="userSpaceOnUse">
<stop stop-color="#09005D"/>
<stop offset="1" stop-color="#1A0F91"/>
</linearGradient>
<linearGradient id="paint24_linear_156_1529" x1="87.0636" y1="177.294" x2="295.894" y2="378.762" gradientUnits="userSpaceOnUse">
<stop stop-color="#4F52FF"/>
<stop offset="1" stop-color="#4042E2"/>
</linearGradient>
<linearGradient id="paint25_linear_156_1529" x1="403.408" y1="2.15108" x2="360.123" y2="53.9148" gradientUnits="userSpaceOnUse">
<stop stop-color="#09005D"/>
<stop offset="1" stop-color="#1A0F91"/>
</linearGradient>
<linearGradient id="paint26_linear_156_1529" x1="465.205" y1="53.8254" x2="421.92" y2="105.589" gradientUnits="userSpaceOnUse">
<stop stop-color="#09005D"/>
<stop offset="1" stop-color="#1A0F91"/>
</linearGradient>
<linearGradient id="paint27_linear_156_1529" x1="226.942" y1="102.399" x2="239.193" y2="96.105" gradientUnits="userSpaceOnUse">
<stop stop-color="#4F52FF"/>
<stop offset="1" stop-color="#4042E2"/>
</linearGradient>
<linearGradient id="paint28_linear_156_1529" x1="304.676" y1="73.4165" x2="239.524" y2="98.8523" gradientUnits="userSpaceOnUse">
<stop stop-color="#FF928E"/>
<stop offset="1" stop-color="#5AF786"/>
</linearGradient>
<linearGradient id="paint29_linear_156_1529" x1="285.458" y1="253.338" x2="265.27" y2="302.81" gradientUnits="userSpaceOnUse">
<stop stop-color="#FEBBBA"/>
<stop offset="1" stop-color="#FF928E"/>
</linearGradient>
<linearGradient id="paint30_linear_156_1529" x1="317.635" y1="281.317" x2="339.895" y2="360.862" gradientUnits="userSpaceOnUse">
<stop stop-color="#09005D"/>
<stop offset="1" stop-color="#1A0F91"/>
</linearGradient>
<linearGradient id="paint31_linear_156_1529" x1="278.652" y1="252.689" x2="329.207" y2="55.8184" gradientUnits="userSpaceOnUse">
<stop stop-color="#FEBBBA"/>
<stop offset="1" stop-color="#FF928E"/>
</linearGradient>
<linearGradient id="paint32_linear_156_1529" x1="318.011" y1="292.937" x2="331.533" y2="374.415" gradientUnits="userSpaceOnUse">
<stop stop-color="#09005D"/>
<stop offset="1" stop-color="#1A0F91"/>
</linearGradient>
<linearGradient id="paint33_linear_156_1529" x1="227.072" y1="141.595" x2="194.05" y2="218.349" gradientUnits="userSpaceOnUse">
<stop stop-color="#5AF786"/>
<stop offset="1" stop-color="#37E668"/>
</linearGradient>
<linearGradient id="paint34_linear_156_1529" x1="82.936" y1="149.073" x2="85.2962" y2="192.297" gradientUnits="userSpaceOnUse">
<stop stop-color="#09005D"/>
<stop offset="1" stop-color="#1A0F91"/>
</linearGradient>
<linearGradient id="paint35_linear_156_1529" x1="139.675" y1="84.7727" x2="130.751" y2="145.461" gradientUnits="userSpaceOnUse">
<stop stop-color="#97FFB4"/>
<stop offset="1" stop-color="#94FFB2"/>
</linearGradient>
<linearGradient id="paint36_linear_156_1529" x1="125.806" y1="253.638" x2="79.1152" y2="298.766" gradientUnits="userSpaceOnUse">
<stop stop-color="#FEBBBA"/>
<stop offset="1" stop-color="#FF928E"/>
</linearGradient>
<linearGradient id="paint37_linear_156_1529" x1="123.241" y1="212.953" x2="105.906" y2="197.178" gradientUnits="userSpaceOnUse">
<stop stop-color="#FEBBBA"/>
<stop offset="1" stop-color="#FF928E"/>
</linearGradient>
<linearGradient id="paint38_linear_156_1529" x1="111.114" y1="195.284" x2="75.0757" y2="146.053" gradientUnits="userSpaceOnUse">
<stop stop-color="#FEBBBA"/>
<stop offset="1" stop-color="#FF928E"/>
</linearGradient>
<linearGradient id="paint39_linear_156_1529" x1="99.1902" y1="150.066" x2="88.8395" y2="189.071" gradientUnits="userSpaceOnUse">
<stop stop-color="#09005D"/>
<stop offset="1" stop-color="#1A0F91"/>
</linearGradient>
<linearGradient id="paint40_linear_156_1529" x1="105.225" y1="199.594" x2="69.1876" y2="150.363" gradientUnits="userSpaceOnUse">
<stop stop-color="#FEBBBA"/>
<stop offset="1" stop-color="#FF928E"/>
</linearGradient>
</defs>
</svg>
