<svg width="256" height="63" viewBox="0 0 256 63" fill="none" xmlns="http://www.w3.org/2000/svg">
<path d="M26.5867 0.727884C27.4556 0.250381 28.4313 0 29.4231 0C30.4148 0 31.3905 0.250381 32.2595 0.727884L55.7979 13.6598C56.7213 14.1672 57.4914 14.9131 58.0276 15.8194C58.5638 16.7257 58.8465 17.7593 58.8462 18.812V44.188C58.8465 45.2407 58.5638 46.2743 58.0276 47.1806C57.4914 48.0869 56.7213 48.8328 55.7979 49.3402L32.2595 62.2721C31.3905 62.7496 30.4148 63 29.4231 63C28.4313 63 27.4556 62.7496 26.5867 62.2721L3.04823 49.3402C2.12482 48.8328 1.35478 48.0869 0.818566 47.1806C0.282355 46.2743 -0.000346162 45.2407 3.18102e-07 44.188V18.812C-0.000346162 17.7593 0.282355 16.7257 0.818566 15.8194C1.35478 14.9131 2.12482 14.1672 3.04823 13.6598L26.5867 0.727884Z" fill="url(#paint0_linear_115_3)"/>
<path fill-rule="evenodd" clip-rule="evenodd" d="M25.0897 18.4919C25.2021 18.5373 25.3172 18.5753 25.4344 18.6056C25.4542 18.6154 25.481 18.6292 25.5155 18.6479C25.6405 18.7158 25.7326 18.7706 25.8588 18.8458L25.8588 18.8458C25.9591 18.9056 26.081 18.9782 26.2582 19.0804C26.7986 19.3922 27.9889 20.0784 29.4161 20.0784C29.983 20.0784 30.5513 20.0231 31.1176 19.8531C31.7072 19.676 32.1453 19.4188 32.4666 19.2027C32.6454 19.0825 32.7744 18.9894 32.8832 18.9108L32.8833 18.9108C33.1336 18.7302 33.277 18.6267 33.6728 18.4476C35.9318 17.4257 38.5591 18.2062 40.2023 20.4604C41.7733 22.6156 42.4592 26.3042 39.8331 30.7961C38.3297 33.3677 37.1573 36.2952 36.1911 38.7077L36.191 38.7078C35.8133 39.651 35.4671 40.5155 35.1449 41.2493C34.5293 42.6513 34.0138 43.5847 33.5383 44.1559C33.4782 43.8871 33.4218 43.5677 33.3741 43.1975C33.1835 41.7203 33.2056 40.168 33.2187 39.2503C33.2214 39.0615 33.2238 38.8995 33.2238 38.7706C33.2238 38.1044 33.1845 37.1169 32.9091 36.212C32.7707 35.7573 32.5091 35.104 31.974 34.5269C31.3656 33.8708 30.4785 33.4053 29.4161 33.4053C28.3593 33.4053 27.4204 33.8449 26.7574 34.5816C26.1835 35.2192 25.9388 35.9396 25.8209 36.4115C25.6054 37.2734 25.6073 38.2249 25.6083 38.6907L25.6084 38.7707C25.6084 39.4003 25.6168 40.0095 25.6249 40.577L25.6257 40.6344C25.6336 41.1866 25.6409 41.6934 25.6409 42.1725C25.6409 43.1889 25.6061 43.9255 25.5163 44.4638C25.5118 44.4908 25.5073 44.5165 25.5028 44.541C25.2724 44.2802 24.9369 43.7276 24.3921 42.4964C24.1454 41.9388 23.8742 41.2855 23.5651 40.5408C22.5317 38.0513 21.0746 34.5411 18.6933 30.1754C16.6398 26.4105 17.099 22.7943 18.5753 20.5517C20.0088 18.374 22.379 17.3961 25.0897 18.4919ZM32.8776 44.6553C32.889 44.6553 32.9003 44.6554 32.9115 44.6556C32.8991 44.6565 32.8899 44.6559 32.8836 44.6556L32.8776 44.6553ZM16.2622 31.5014C11.243 22.2994 17.993 12.636 26.1276 15.9245C26.4803 15.995 26.8904 16.2381 27.3347 16.5012C27.9805 16.8839 28.6983 17.3091 29.4161 17.3091C30.3669 17.3091 30.6849 17.0795 31.1747 16.7258C31.4873 16.5001 31.8698 16.2238 32.5315 15.9245C39.8007 12.636 48.4545 21.5358 42.2238 32.1937C40.8299 34.5779 39.7968 37.1598 38.8569 39.5086C37.1126 43.868 35.6895 47.4245 32.8776 47.4245C31.9252 47.4245 31.3413 46.5443 30.9851 45.34C30.3848 43.3105 30.431 40.3605 30.45 39.1521V39.152C30.4525 38.9925 30.4545 38.8634 30.4545 38.7707C30.4545 38.7267 30.4543 38.6826 30.4538 38.6383C30.4411 37.4605 30.2501 36.1745 29.4161 36.1745C28.4133 36.1745 28.3788 37.6271 28.3776 38.662L28.3776 38.7707C28.3776 39.4016 28.3864 40.0145 28.3948 40.6036C28.4224 42.5365 28.4464 44.2119 28.1453 45.4186C27.8316 46.6761 27.1649 47.4245 25.7815 47.4245C23.4242 47.4245 22.6529 45.5672 20.9738 41.5242C19.9406 39.0364 18.5638 35.721 16.2622 31.5014ZM22.5009 18.9823C23.1384 18.7253 23.8481 19.1153 24.0114 19.7829C24.1636 20.4049 23.7694 21.0196 23.2139 21.3381C22.9612 21.483 22.7236 21.6546 22.5055 21.8509C21.9985 22.3069 21.6122 22.8814 21.3811 23.5231C21.1501 24.1647 21.0814 24.8536 21.1812 25.5282C21.2211 25.7976 21.2873 26.0614 21.3784 26.3159C21.6059 26.9514 21.5142 27.716 20.9726 28.1189C20.431 28.5217 19.6534 28.4124 19.3575 27.8056C19.0633 27.2021 18.8621 26.5549 18.7631 25.886C18.6043 24.8123 18.7136 23.716 19.0813 22.6948C19.4491 21.6737 20.0638 20.7594 20.8708 20.0335C21.4584 19.5049 21.687 19.3104 22.5009 18.9823Z" fill="white"/>
<path d="M75.6571 43.7908C74.1326 43.7908 72.7775 43.4803 71.5918 42.8592C70.4174 42.2268 69.4914 41.3629 68.8139 40.2676C68.1476 39.1609 67.8145 37.8962 67.8145 36.4733C67.8145 35.0505 68.1476 33.7857 68.8139 32.679C69.4914 31.5611 70.4174 30.6803 71.5918 30.0366C72.7775 29.3929 74.1326 29.0711 75.6571 29.0711C77.1816 29.0711 78.5254 29.3929 79.6885 30.0366C80.8516 30.6803 81.7606 31.5611 82.4156 32.679C83.0706 33.7857 83.398 35.0505 83.398 36.4733C83.398 37.8962 83.0706 39.1609 82.4156 40.2676C81.7606 41.3629 80.8516 42.2268 79.6885 42.8592C78.5254 43.4803 77.1816 43.7908 75.6571 43.7908ZM75.6571 39.5561C76.2443 39.5561 76.7524 39.4263 77.1816 39.1666C77.6107 38.9068 77.9438 38.5398 78.1809 38.0655C78.4181 37.5913 78.5366 37.0549 78.5366 36.4564C78.5366 35.8466 78.4181 35.3045 78.1809 34.8303C77.9438 34.356 77.6107 33.9833 77.1816 33.7123C76.7524 33.4413 76.2443 33.3058 75.6571 33.3058C75.0699 33.3058 74.5561 33.4413 74.1157 33.7123C73.6865 33.9833 73.3478 34.356 73.0993 34.8303C72.8622 35.3045 72.7436 35.8466 72.7436 36.4564C72.7436 37.0549 72.8622 37.5913 73.0993 38.0655C73.3478 38.5398 73.6865 38.9068 74.1157 39.1666C74.5561 39.4263 75.0699 39.5561 75.6571 39.5561ZM92.0402 43.7908C90.6964 43.7908 89.5276 43.4633 88.5339 42.8084C87.5402 42.1421 86.7666 41.2557 86.2133 40.149C85.6713 39.031 85.4002 37.7945 85.4002 36.4394C85.4002 35.0843 85.6713 33.8535 86.2133 32.7468C86.7666 31.6288 87.5402 30.7367 88.5339 30.0705C89.5276 29.4042 90.6964 29.0711 92.0402 29.0711C92.9323 29.0711 93.7228 29.2123 94.4116 29.4946C95.1004 29.7656 95.6594 30.0931 96.0885 30.477C96.5177 30.8497 96.7774 31.1941 96.8677 31.5103V20.0767H102.017V43.3843H96.9185V41.1314C96.704 41.5493 96.3539 41.9671 95.8683 42.3849C95.3828 42.7914 94.8125 43.1246 94.1575 43.3843C93.5026 43.6553 92.7968 43.7908 92.0402 43.7908ZM93.6155 39.7425C94.2366 39.7425 94.7899 39.6013 95.2755 39.319C95.7723 39.0367 96.1619 38.6471 96.4442 38.1502C96.7266 37.6421 96.8677 37.0718 96.8677 36.4394C96.8677 35.8071 96.7266 35.2424 96.4442 34.7456C96.1619 34.2374 95.7723 33.8422 95.2755 33.5599C94.7899 33.2663 94.2366 33.1195 93.6155 33.1195C93.017 33.1195 92.475 33.2663 91.9894 33.5599C91.5151 33.8422 91.1368 34.2374 90.8545 34.7456C90.5835 35.2424 90.448 35.8071 90.448 36.4394C90.448 37.0718 90.5835 37.6421 90.8545 38.1502C91.1368 38.6471 91.5151 39.0367 91.9894 39.319C92.475 39.6013 93.017 39.7425 93.6155 39.7425ZM112.082 43.7908C110.557 43.7908 109.202 43.4803 108.017 42.8592C106.842 42.2268 105.916 41.3629 105.239 40.2676C104.572 39.1609 104.239 37.8962 104.239 36.4733C104.239 35.0505 104.572 33.7857 105.239 32.679C105.916 31.5611 106.842 30.6803 108.017 30.0366C109.202 29.3929 110.557 29.0711 112.082 29.0711C113.606 29.0711 114.95 29.3929 116.113 30.0366C117.276 30.6803 118.185 31.5611 118.84 32.679C119.495 33.7857 119.823 35.0505 119.823 36.4733C119.823 37.8962 119.495 39.1609 118.84 40.2676C118.185 41.3629 117.276 42.2268 116.113 42.8592C114.95 43.4803 113.606 43.7908 112.082 43.7908ZM112.082 39.5561C112.669 39.5561 113.177 39.4263 113.606 39.1666C114.035 38.9068 114.369 38.5398 114.606 38.0655C114.843 37.5913 114.961 37.0549 114.961 36.4564C114.961 35.8466 114.843 35.3045 114.606 34.8303C114.369 34.356 114.035 33.9833 113.606 33.7123C113.177 33.4413 112.669 33.3058 112.082 33.3058C111.495 33.3058 110.981 33.4413 110.54 33.7123C110.111 33.9833 109.773 34.356 109.524 34.8303C109.287 35.3045 109.168 35.8466 109.168 36.4564C109.168 37.0549 109.287 37.5913 109.524 38.0655C109.773 38.5398 110.111 38.9068 110.54 39.1666C110.981 39.4263 111.495 39.5561 112.082 39.5561ZM132.073 29.0711C133.044 29.0711 133.993 29.2687 134.919 29.664C135.845 30.0592 136.607 30.6859 137.205 31.5442C137.804 32.3911 138.103 33.509 138.103 34.898V43.3843H132.937V35.7449C132.937 34.7512 132.7 34.0059 132.225 33.509C131.751 33.0009 131.13 32.7468 130.362 32.7468C129.854 32.7468 129.374 32.8823 128.922 33.1533C128.482 33.4131 128.121 33.7857 127.838 34.2713C127.567 34.7456 127.432 35.2932 127.432 35.9143V43.3843H122.282V29.4776H127.432V31.5272C127.567 31.1546 127.849 30.7819 128.279 30.4093C128.719 30.0253 129.267 29.7091 129.922 29.4607C130.588 29.201 131.305 29.0711 132.073 29.0711ZM139.91 29.4776H142.281V23.7693H147.38V29.4776H150.496V33.7123H147.38V37.5913C147.38 38.1672 147.464 38.6358 147.634 38.9972C147.803 39.3472 148.114 39.5223 148.565 39.5223C148.87 39.5223 149.13 39.4545 149.344 39.319C149.559 39.1835 149.689 39.0932 149.734 39.048L151.496 42.7067C151.417 42.7745 151.168 42.8987 150.75 43.0794C150.344 43.2601 149.824 43.4238 149.192 43.5706C148.56 43.7174 147.854 43.7908 147.075 43.7908C145.686 43.7908 144.54 43.4012 143.636 42.622C142.733 41.8316 142.281 40.6176 142.281 38.9802V33.7123H139.91V29.4776ZM160.483 43.7908C158.958 43.7908 157.603 43.4803 156.417 42.8592C155.243 42.2268 154.317 41.3629 153.639 40.2676C152.973 39.1609 152.64 37.8962 152.64 36.4733C152.64 35.0505 152.973 33.7857 153.639 32.679C154.317 31.5611 155.243 30.6803 156.417 30.0366C157.603 29.3929 158.958 29.0711 160.483 29.0711C162.007 29.0711 163.351 29.3929 164.514 30.0366C165.677 30.6803 166.586 31.5611 167.241 32.679C167.896 33.7857 168.224 35.0505 168.224 36.4733C168.224 37.8962 167.896 39.1609 167.241 40.2676C166.586 41.3629 165.677 42.2268 164.514 42.8592C163.351 43.4803 162.007 43.7908 160.483 43.7908ZM160.483 39.5561C161.07 39.5561 161.578 39.4263 162.007 39.1666C162.436 38.9068 162.769 38.5398 163.007 38.0655C163.244 37.5913 163.362 37.0549 163.362 36.4564C163.362 35.8466 163.244 35.3045 163.007 34.8303C162.769 34.356 162.436 33.9833 162.007 33.7123C161.578 33.4413 161.07 33.3058 160.483 33.3058C159.895 33.3058 159.382 33.4413 158.941 33.7123C158.512 33.9833 158.173 34.356 157.925 34.8303C157.688 35.3045 157.569 35.8466 157.569 36.4564C157.569 37.0549 157.688 37.5913 157.925 38.0655C158.173 38.5398 158.512 38.9068 158.941 39.1666C159.382 39.4263 159.895 39.5561 160.483 39.5561ZM174.359 43.7908C173.523 43.7908 172.801 43.4916 172.191 42.8931C171.592 42.2833 171.293 41.5605 171.293 40.7249C171.293 39.8667 171.592 39.1383 172.191 38.5398C172.801 37.93 173.523 37.6251 174.359 37.6251C175.217 37.6251 175.945 37.93 176.544 38.5398C177.142 39.1383 177.442 39.8667 177.442 40.7249C177.442 41.5605 177.142 42.2833 176.544 42.8931C175.945 43.4916 175.217 43.7908 174.359 43.7908Z" fill="url(#paint1_linear_115_3)"/>
<path d="M187.815 42.0969C188.809 42.0969 189.605 41.9445 190.204 41.6396C190.802 41.3234 191.169 41.1032 191.305 40.979L192.321 42.4696C192.231 42.5373 191.977 42.6841 191.559 42.91C191.141 43.1246 190.599 43.3222 189.933 43.5028C189.278 43.6948 188.532 43.7908 187.697 43.7908C186.579 43.7908 185.5 43.5141 184.461 42.9608C183.423 42.4075 182.564 41.5831 181.887 40.4878C181.221 39.3924 180.887 38.0373 180.887 36.4225C180.887 34.7964 181.221 33.4413 181.887 32.3572C182.564 31.2618 183.423 30.4431 184.461 29.9011C185.5 29.3478 186.579 29.0711 187.697 29.0711C188.532 29.0711 189.266 29.1727 189.899 29.376C190.531 29.5793 191.051 29.8051 191.457 30.0536C191.864 30.302 192.118 30.4827 192.219 30.5956L191.22 32.0693C191.118 31.9789 190.926 31.8321 190.644 31.6288C190.373 31.4143 190 31.2167 189.526 31.036C189.052 30.8553 188.482 30.765 187.815 30.765C187.014 30.765 186.223 30.9852 185.444 31.4256C184.665 31.866 184.021 32.5097 183.513 33.3566C183.016 34.1922 182.768 35.2142 182.768 36.4225C182.768 37.6308 183.016 38.6584 183.513 39.5053C184.021 40.3523 184.665 40.9959 185.444 41.4363C186.223 41.8767 187.014 42.0969 187.815 42.0969ZM197.68 43.3843H195.715V20.0767H197.68V43.3843ZM202.718 43.3843V29.4776H204.632V43.3843H202.718ZM203.7 23.8371C203.294 23.8371 202.944 23.6959 202.65 23.4136C202.368 23.12 202.227 22.7699 202.227 22.3634C202.227 21.9456 202.374 21.5955 202.667 21.3132C202.961 21.0196 203.305 20.8728 203.7 20.8728C203.971 20.8728 204.22 20.9406 204.446 21.0761C204.683 21.2116 204.869 21.3923 205.005 21.6181C205.151 21.8327 205.225 22.0811 205.225 22.3634C205.225 22.7699 205.072 23.12 204.767 23.4136C204.474 23.6959 204.118 23.8371 203.7 23.8371ZM216.552 29.0711C217.432 29.0711 218.291 29.2631 219.126 29.647C219.962 30.0197 220.651 30.6182 221.193 31.4425C221.735 32.2556 222.006 33.3114 222.006 34.6101V43.3843H220.041V35.0674C220.041 33.5203 219.68 32.408 218.957 31.7305C218.234 31.0416 217.308 30.6972 216.179 30.6972C215.434 30.6972 214.711 30.9118 214.011 31.3409C213.322 31.77 212.752 32.3572 212.3 33.1025C211.859 33.8478 211.639 34.6835 211.639 35.6094V43.3843H209.708V29.4776H211.639V32.1539C211.718 31.7587 211.984 31.324 212.435 30.8497C212.898 30.3641 213.486 29.9463 214.197 29.5962C214.92 29.2461 215.705 29.0711 216.552 29.0711ZM226.67 43.3843V29.4776H228.584V43.3843H226.67ZM227.653 23.8371C227.246 23.8371 226.896 23.6959 226.602 23.4136C226.32 23.12 226.179 22.7699 226.179 22.3634C226.179 21.9456 226.326 21.5955 226.619 21.3132C226.913 21.0196 227.257 20.8728 227.653 20.8728C227.924 20.8728 228.172 20.9406 228.398 21.0761C228.635 21.2116 228.821 21.3923 228.957 21.6181C229.104 21.8327 229.177 22.0811 229.177 22.3634C229.177 22.7699 229.025 23.12 228.72 23.4136C228.426 23.6959 228.07 23.8371 227.653 23.8371ZM239.657 42.0969C240.651 42.0969 241.447 41.9445 242.045 41.6396C242.644 41.3234 243.011 41.1032 243.146 40.979L244.163 42.4696C244.072 42.5373 243.818 42.6841 243.4 42.91C242.983 43.1246 242.44 43.3222 241.774 43.5028C241.119 43.6948 240.374 43.7908 239.538 43.7908C238.42 43.7908 237.342 43.5141 236.303 42.9608C235.264 42.4075 234.406 41.5831 233.728 40.4878C233.062 39.3924 232.729 38.0373 232.729 36.4225C232.729 34.7964 233.062 33.4413 233.728 32.3572C234.406 31.2618 235.264 30.4431 236.303 29.9011C237.342 29.3478 238.42 29.0711 239.538 29.0711C240.374 29.0711 241.108 29.1727 241.74 29.376C242.373 29.5793 242.892 29.8051 243.299 30.0536C243.705 30.302 243.959 30.4827 244.061 30.5956L243.062 32.0693C242.96 31.9789 242.768 31.8321 242.486 31.6288C242.215 31.4143 241.842 31.2167 241.368 31.036C240.893 30.8553 240.323 30.765 239.657 30.765C238.855 30.765 238.065 30.9852 237.285 31.4256C236.506 31.866 235.863 32.5097 235.354 33.3566C234.858 34.1922 234.609 35.2142 234.609 36.4225C234.609 37.6308 234.858 38.6584 235.354 39.5053C235.863 40.3523 236.506 40.9959 237.285 41.4363C238.065 41.8767 238.855 42.0969 239.657 42.0969Z" fill="#F7F9FF"/>
<defs>
<linearGradient id="paint0_linear_115_3" x1="29.4231" y1="0" x2="29.4231" y2="67.1888" gradientUnits="userSpaceOnUse">
<stop offset="0.0712942" stop-color="#3B72FF"/>
<stop offset="1" stop-color="#5AF786"/>
</linearGradient>
<linearGradient id="paint1_linear_115_3" x1="161.308" y1="19.3843" x2="161.146" y2="54.519" gradientUnits="userSpaceOnUse">
<stop stop-color="#3B72FF"/>
<stop offset="1" stop-color="#5AF786"/>
</linearGradient>
</defs>
</svg>
