<svg width="603" height="149" viewBox="0 0 603 149" fill="none" xmlns="http://www.w3.org/2000/svg">
<path d="M62.7561 1.71812C64.8072 0.591008 67.1102 0 69.4512 0C71.7922 0 74.0952 0.591008 76.1463 1.71812L131.707 32.2431C133.887 33.4408 135.705 35.2013 136.97 37.3406C138.236 39.4799 138.903 41.9195 138.902 44.4045V104.303C138.903 106.788 138.236 109.227 136.97 111.367C135.705 113.506 133.887 115.266 131.707 116.464L76.1463 146.989C74.0952 148.116 71.7922 148.707 69.4512 148.707C67.1102 148.707 64.8072 148.116 62.7561 146.989L7.19515 116.464C5.01549 115.266 3.19786 113.506 1.93217 111.367C0.66648 109.227 -0.000817092 106.788 7.5086e-07 104.303V44.4045C-0.000817092 41.9195 0.66648 39.4799 1.93217 37.3406C3.19786 35.2013 5.01549 33.4408 7.19515 32.2431L62.7561 1.71812Z" fill="url(#paint0_linear_156_640)"/>
<path fill-rule="evenodd" clip-rule="evenodd" d="M59.2227 43.6484C59.4878 43.7556 59.7596 43.8453 60.0363 43.9168C60.0829 43.9399 60.1462 43.9725 60.2278 44.0168C60.5228 44.1769 60.7401 44.3063 61.038 44.4838L61.038 44.4838C61.2748 44.6249 61.5625 44.7963 61.9807 45.0375C63.2563 45.7735 66.066 47.3932 69.4347 47.3932C70.7729 47.3932 72.1142 47.2628 73.4509 46.8614C74.8429 46.4434 75.8769 45.8364 76.6352 45.3263C77.0573 45.0424 77.3618 44.8226 77.6187 44.6372L77.6188 44.6372C78.2096 44.2108 78.5481 43.9665 79.4825 43.5438C84.8147 41.1317 91.0163 42.9741 94.8948 48.295C98.603 53.3823 100.222 62.0888 94.0234 72.6918C90.4748 78.7618 87.7073 85.6718 85.4266 91.3666L85.4266 91.3666C84.5349 93.5931 83.7177 95.6338 82.9572 97.3658C81.5043 100.675 80.2875 102.878 79.1649 104.227C79.023 103.592 78.89 102.838 78.7773 101.964C78.3274 98.4774 78.3797 94.8134 78.4107 92.6472C78.417 92.2016 78.4225 91.8193 78.4225 91.5151C78.4225 89.9423 78.3298 87.6116 77.6797 85.4755C77.3531 84.4023 76.7357 82.8602 75.4725 81.498C74.0365 79.9492 71.9425 78.8505 69.4347 78.8505C66.9402 78.8505 64.724 79.8882 63.159 81.6271C61.8044 83.1322 61.2269 84.8327 60.9485 85.9465C60.4398 87.981 60.4444 90.2268 60.4466 91.3263L60.4469 91.5152C60.4469 93.0014 60.4668 94.4392 60.4859 95.7787L60.4878 95.9149V95.915C60.5065 97.2183 60.5236 98.4142 60.5236 99.545C60.5236 101.944 60.4416 103.683 60.2297 104.953C60.219 105.017 60.2083 105.078 60.1977 105.136C59.6538 104.52 58.8618 103.216 57.576 100.309C56.9937 98.9934 56.3535 97.4512 55.6239 95.6934L55.6238 95.6933L55.6238 95.6933C53.1846 89.8172 49.7453 81.5316 44.1244 71.2265C39.2771 62.3399 40.3611 53.8039 43.8457 48.5105C47.2295 43.3702 52.8241 41.0618 59.2227 43.6484ZM77.6054 105.405C77.6323 105.405 77.659 105.406 77.6854 105.406C77.6561 105.408 77.6344 105.407 77.6196 105.406C77.6138 105.406 77.6091 105.405 77.6054 105.405ZM38.3859 74.3566C26.5383 52.6358 42.4713 29.8261 61.6725 37.5883C62.505 37.7548 63.4731 38.3284 64.5217 38.9496L64.5217 38.9496C66.0461 39.8528 67.7404 40.8566 69.4347 40.8566C71.6791 40.8566 72.4298 40.3145 73.5858 39.4797C74.3236 38.9469 75.2266 38.2948 76.7884 37.5883C93.9469 29.8261 114.374 50.8335 99.6664 75.9907C96.3763 81.6185 93.9377 87.7128 91.7193 93.2571C87.6018 103.547 84.2427 111.942 77.6054 111.942C75.3574 111.942 73.9792 109.864 73.1383 107.022C71.7213 102.231 71.8305 95.2679 71.8752 92.4155L71.8752 92.4148C71.8811 92.0385 71.8859 91.7338 71.8859 91.5151V91.5151C71.8859 91.4114 71.8854 91.3072 71.8842 91.2026C71.8541 88.4226 71.4033 85.3871 69.4347 85.3871C67.0676 85.3871 66.9863 88.8158 66.9836 91.2585L66.9835 91.5151C66.9835 93.0043 67.0042 94.4512 67.0241 95.8417C67.0893 100.404 67.1458 104.359 66.4352 107.207C65.6946 110.175 64.1209 111.942 60.8554 111.942C55.2913 111.942 53.4707 107.558 49.5073 98.0146C47.0686 92.1423 43.8186 84.3165 38.3859 74.3566ZM53.112 44.8061C54.6167 44.1996 56.2919 45.12 56.6775 46.6958C57.0368 48.1641 56.1062 49.615 54.7949 50.3668C54.1985 50.7087 53.6378 51.1139 53.1229 51.5771C51.9261 52.6537 51.0143 54.0097 50.4689 55.5242C49.9235 57.0388 49.7613 58.6648 49.997 60.2572C50.0911 60.8931 50.2474 61.5158 50.4625 62.1166C50.9995 63.6167 50.783 65.4215 49.5045 66.3723C48.2261 67.3232 46.3906 67.0651 45.6923 65.6329C44.9978 64.2084 44.5229 62.6808 44.2893 61.1018C43.9142 58.5675 44.1722 55.9797 45.0403 53.5693C45.9083 51.1588 47.3594 49.0007 49.2642 47.2874C50.6512 46.0397 51.1909 45.5805 53.112 44.8061Z" fill="white"/>
<path d="M178.583 102.716C174.985 102.716 171.786 101.983 168.988 100.517C166.216 99.024 164.03 96.9848 162.43 94.3993C160.858 91.7871 160.072 88.8017 160.072 85.4432C160.072 82.0847 160.858 79.0993 162.43 76.4871C164.03 73.8483 166.216 71.7692 168.988 70.2498C171.786 68.7305 174.985 67.9708 178.583 67.9708C182.182 67.9708 185.354 68.7305 188.099 70.2498C190.845 71.7692 192.991 73.8483 194.537 76.4871C196.083 79.0993 196.856 82.0847 196.856 85.4432C196.856 88.8017 196.083 91.7871 194.537 94.3993C192.991 96.9848 190.845 99.024 188.099 100.517C185.354 101.983 182.182 102.716 178.583 102.716ZM178.583 92.72C179.97 92.72 181.169 92.4135 182.182 91.8004C183.195 91.1874 183.981 90.3211 184.541 89.2016C185.101 88.0821 185.381 86.8159 185.381 85.4032C185.381 83.9639 185.101 82.6844 184.541 81.5649C183.981 80.4454 183.195 79.5658 182.182 78.926C181.169 78.2863 179.97 77.9665 178.583 77.9665C177.197 77.9665 175.985 78.2863 174.945 78.926C173.932 79.5658 173.133 80.4454 172.546 81.5649C171.986 82.6844 171.706 83.9639 171.706 85.4032C171.706 86.8159 171.986 88.0821 172.546 89.2016C173.133 90.3211 173.932 91.1874 174.945 91.8004C175.985 92.4135 177.197 92.72 178.583 92.72ZM217.255 102.716C214.083 102.716 211.324 101.943 208.978 100.397C206.633 98.824 204.807 96.7316 203.501 94.1194C202.221 91.4806 201.582 88.5619 201.582 85.3632C201.582 82.1646 202.221 79.2592 203.501 76.647C204.807 74.0082 206.633 71.9024 208.978 70.3298C211.324 68.7571 214.083 67.9708 217.255 67.9708C219.36 67.9708 221.226 68.304 222.852 68.9704C224.478 69.6101 225.798 70.3831 226.811 71.2894C227.823 72.169 228.437 72.982 228.65 73.7283V46.7401H240.804V101.756H228.77V96.4384C228.263 97.4247 227.437 98.4109 226.291 99.3971C225.145 100.357 223.799 101.143 222.253 101.756C220.707 102.396 219.041 102.716 217.255 102.716ZM220.973 93.1598C222.439 93.1598 223.745 92.8267 224.891 92.1603C226.064 91.4939 226.984 90.5743 227.65 89.4015C228.317 88.202 228.65 86.8559 228.65 85.3632C228.65 83.8706 228.317 82.5378 227.65 81.365C226.984 80.1655 226.064 79.2326 224.891 78.5662C223.745 77.8732 222.439 77.5267 220.973 77.5267C219.56 77.5267 218.281 77.8732 217.135 78.5662C216.015 79.2326 215.122 80.1655 214.456 81.365C213.816 82.5378 213.496 83.8706 213.496 85.3632C213.496 86.8559 213.816 88.202 214.456 89.4015C215.122 90.5743 216.015 91.4939 217.135 92.1603C218.281 92.8267 219.56 93.1598 220.973 93.1598ZM264.562 102.716C260.963 102.716 257.765 101.983 254.966 100.517C252.194 99.024 250.008 96.9848 248.409 94.3993C246.836 91.7871 246.05 88.8017 246.05 85.4432C246.05 82.0847 246.836 79.0993 248.409 76.4871C250.008 73.8483 252.194 71.7692 254.966 70.2498C257.765 68.7305 260.963 67.9708 264.562 67.9708C268.16 67.9708 271.332 68.7305 274.077 70.2498C276.823 71.7692 278.969 73.8483 280.515 76.4871C282.061 79.0993 282.834 82.0847 282.834 85.4432C282.834 88.8017 282.061 91.7871 280.515 94.3993C278.969 96.9848 276.823 99.024 274.077 100.517C271.332 101.983 268.16 102.716 264.562 102.716ZM264.562 92.72C265.948 92.72 267.147 92.4135 268.16 91.8004C269.173 91.1874 269.959 90.3211 270.519 89.2016C271.079 88.0821 271.359 86.8159 271.359 85.4032C271.359 83.9639 271.079 82.6844 270.519 81.5649C269.959 80.4454 269.173 79.5658 268.16 78.926C267.147 78.2863 265.948 77.9665 264.562 77.9665C263.176 77.9665 261.963 78.2863 260.923 78.926C259.91 79.5658 259.111 80.4454 258.524 81.5649C257.965 82.6844 257.685 83.9639 257.685 85.4032C257.685 86.8159 257.965 88.0821 258.524 89.2016C259.111 90.3211 259.91 91.1874 260.923 91.8004C261.963 92.4135 263.176 92.72 264.562 92.72ZM311.749 67.9708C314.042 67.9708 316.281 68.4373 318.466 69.3702C320.652 70.3031 322.451 71.7825 323.864 73.8083C325.277 75.8074 325.983 78.4463 325.983 81.7248V101.756H313.788V83.724C313.788 81.3783 313.229 79.6191 312.109 78.4463C310.99 77.2468 309.523 76.647 307.711 76.647C306.511 76.647 305.379 76.9669 304.312 77.6066C303.273 78.2197 302.42 79.0993 301.754 80.2455C301.114 81.365 300.794 82.6578 300.794 84.1238V101.756H288.639V68.9304H300.794V73.7683C301.114 72.8887 301.78 72.0091 302.793 71.1294C303.833 70.2232 305.125 69.4768 306.671 68.8904C308.244 68.2774 309.937 67.9708 311.749 67.9708ZM330.247 68.9304H335.845V55.4563H347.88V68.9304H355.236V78.926H347.88V88.0821C347.88 89.4415 348.08 90.5477 348.479 91.4006C348.879 92.2269 349.612 92.6401 350.678 92.6401C351.398 92.6401 352.011 92.4801 352.518 92.1603C353.024 91.8404 353.331 91.6272 353.437 91.5206L357.595 100.157C357.409 100.317 356.822 100.61 355.836 101.036C354.877 101.463 353.651 101.849 352.158 102.196C350.665 102.542 348.999 102.716 347.16 102.716C343.881 102.716 341.176 101.796 339.044 99.9569C336.911 98.091 335.845 95.2256 335.845 91.3606V78.926H330.247V68.9304ZM378.809 102.716C375.21 102.716 372.012 101.983 369.213 100.517C366.441 99.024 364.255 96.9848 362.656 94.3993C361.083 91.7871 360.297 88.8017 360.297 85.4432C360.297 82.0847 361.083 79.0993 362.656 76.4871C364.255 73.8483 366.441 71.7692 369.213 70.2498C372.012 68.7305 375.21 67.9708 378.809 67.9708C382.407 67.9708 385.579 68.7305 388.325 70.2498C391.07 71.7692 393.216 73.8483 394.762 76.4871C396.308 79.0993 397.081 82.0847 397.081 85.4432C397.081 88.8017 396.308 91.7871 394.762 94.3993C393.216 96.9848 391.07 99.024 388.325 100.517C385.579 101.983 382.407 102.716 378.809 102.716ZM378.809 92.72C380.195 92.72 381.394 92.4135 382.407 91.8004C383.42 91.1874 384.206 90.3211 384.766 89.2016C385.326 88.0821 385.606 86.8159 385.606 85.4032C385.606 83.9639 385.326 82.6844 384.766 81.5649C384.206 80.4454 383.42 79.5658 382.407 78.926C381.394 78.2863 380.195 77.9665 378.809 77.9665C377.423 77.9665 376.21 78.2863 375.17 78.926C374.157 79.5658 373.358 80.4454 372.771 81.5649C372.212 82.6844 371.932 83.9639 371.932 85.4032C371.932 86.8159 372.212 88.0821 372.771 89.2016C373.358 90.3211 374.157 91.1874 375.17 91.8004C376.21 92.4135 377.423 92.72 378.809 92.72ZM411.563 102.716C409.59 102.716 407.884 102.009 406.445 100.597C405.032 99.1572 404.326 97.4513 404.326 95.4788C404.326 93.4531 405.032 91.7338 406.445 90.3211C407.884 88.8817 409.59 88.162 411.563 88.162C413.588 88.162 415.308 88.8817 416.72 90.3211C418.133 91.7338 418.839 93.4531 418.839 95.4788C418.839 97.4513 418.133 99.1572 416.72 100.597C415.308 102.009 413.588 102.716 411.563 102.716Z" fill="url(#paint1_linear_156_640)"/>
<path d="M443.326 98.7174C445.671 98.7174 447.55 98.3576 448.963 97.6379C450.376 96.8916 451.242 96.3718 451.562 96.0786L453.961 99.597C453.748 99.757 453.148 100.103 452.162 100.637C451.176 101.143 449.896 101.61 448.323 102.036C446.777 102.489 445.018 102.716 443.046 102.716C440.407 102.716 437.861 102.063 435.409 100.757C432.957 99.4504 430.931 97.5046 429.332 94.9191C427.759 92.3335 426.973 89.1349 426.973 85.3233C426.973 81.4849 427.759 78.2863 429.332 75.7274C430.931 73.1419 432.957 71.2094 435.409 69.93C437.861 68.6239 440.407 67.9708 443.046 67.9708C445.018 67.9708 446.751 68.2107 448.243 68.6905C449.736 69.1703 450.962 69.7034 451.922 70.2898C452.881 70.8762 453.481 71.3027 453.721 71.5693L451.362 75.0477C451.122 74.8345 450.669 74.488 450.003 74.0082C449.363 73.5017 448.483 73.0353 447.364 72.6088C446.244 72.1823 444.898 71.9691 443.326 71.9691C441.433 71.9691 439.567 72.4889 437.728 73.5284C435.889 74.5679 434.369 76.0873 433.17 78.0864C431.997 80.0589 431.411 82.4712 431.411 85.3233C431.411 88.1754 431.997 90.601 433.17 92.6001C434.369 94.5992 435.889 96.1186 437.728 97.1581C439.567 98.1977 441.433 98.7174 443.326 98.7174ZM466.61 101.756H461.972V46.7401H466.61V101.756ZM478.502 101.756V68.9304H483.02V101.756H478.502ZM480.821 55.6162C479.862 55.6162 479.035 55.283 478.342 54.6166C477.676 53.9236 477.343 53.0973 477.343 52.1377C477.343 51.1515 477.689 50.3252 478.382 49.6588C479.075 48.9658 479.888 48.6193 480.821 48.6193C481.461 48.6193 482.047 48.7792 482.58 49.099C483.14 49.4189 483.58 49.8454 483.9 50.3785C484.246 50.8849 484.42 51.4713 484.42 52.1377C484.42 53.0973 484.06 53.9236 483.34 54.6166C482.647 55.283 481.807 55.6162 480.821 55.6162ZM511.155 67.9708C513.235 67.9708 515.26 68.424 517.233 69.3302C519.205 70.2098 520.831 71.6226 522.111 73.5684C523.39 75.4875 524.03 77.9798 524.03 81.0451V101.756H519.392V82.1247C519.392 78.4729 518.539 75.8474 516.833 74.2481C515.127 72.6221 512.941 71.8092 510.276 71.8092C508.517 71.8092 506.811 72.3156 505.158 73.3285C503.532 74.3414 502.186 75.7274 501.12 77.4867C500.08 79.2459 499.56 81.2184 499.56 83.4041V101.756H495.002V68.9304H499.56V75.2477C499.747 74.3147 500.373 73.2885 501.44 72.169C502.533 71.0228 503.919 70.0366 505.598 69.2103C507.304 68.384 509.156 67.9708 511.155 67.9708ZM535.04 101.756V68.9304H539.558V101.756H535.04ZM537.359 55.6162C536.399 55.6162 535.573 55.283 534.88 54.6166C534.214 53.9236 533.881 53.0973 533.881 52.1377C533.881 51.1515 534.227 50.3252 534.92 49.6588C535.613 48.9658 536.426 48.6193 537.359 48.6193C537.999 48.6193 538.585 48.7792 539.118 49.099C539.678 49.4189 540.118 49.8454 540.438 50.3785C540.784 50.8849 540.957 51.4713 540.957 52.1377C540.957 53.0973 540.598 53.9236 539.878 54.6166C539.185 55.283 538.345 55.6162 537.359 55.6162ZM565.694 98.7174C568.04 98.7174 569.919 98.3576 571.332 97.6379C572.744 96.8916 573.611 96.3718 573.931 96.0786L576.33 99.597C576.116 99.757 575.517 100.103 574.53 100.637C573.544 101.143 572.265 101.61 570.692 102.036C569.146 102.489 567.387 102.716 565.414 102.716C562.775 102.716 560.23 102.063 557.778 100.757C555.325 99.4504 553.3 97.5046 551.7 94.9191C550.128 92.3335 549.341 89.1349 549.341 85.3233C549.341 81.4849 550.128 78.2863 551.7 75.7274C553.3 73.1419 555.325 71.2094 557.778 69.93C560.23 68.6239 562.775 67.9708 565.414 67.9708C567.387 67.9708 569.119 68.2107 570.612 68.6905C572.105 69.1703 573.331 69.7034 574.29 70.2898C575.25 70.8762 575.85 71.3027 576.09 71.5693L573.731 75.0477C573.491 74.8345 573.038 74.488 572.371 74.0082C571.732 73.5017 570.852 73.0353 569.732 72.6088C568.613 72.1823 567.267 71.9691 565.694 71.9691C563.802 71.9691 561.936 72.4889 560.097 73.5284C558.257 74.5679 556.738 76.0873 555.539 78.0864C554.366 80.0589 553.779 82.4712 553.779 85.3233C553.779 88.1754 554.366 90.601 555.539 92.6001C556.738 94.5992 558.257 96.1186 560.097 97.1581C561.936 98.1977 563.802 98.7174 565.694 98.7174Z" fill="#00071A"/>
<defs>
<linearGradient id="paint0_linear_156_640" x1="69.4512" y1="0" x2="69.4512" y2="158.595" gradientUnits="userSpaceOnUse">
<stop offset="0.0712942" stop-color="#3B72FF"/>
<stop offset="1" stop-color="#5AF786"/>
</linearGradient>
<linearGradient id="paint1_linear_156_640" x1="380.756" y1="45.7561" x2="380.374" y2="128.689" gradientUnits="userSpaceOnUse">
<stop stop-color="#3B72FF"/>
<stop offset="1" stop-color="#5AF786"/>
</linearGradient>
</defs>
</svg>
