<svg width="500" height="500" viewBox="0 0 500 500" fill="none" xmlns="http://www.w3.org/2000/svg">
<path d="M258.542 438.679C235.914 438.679 218.628 435.515 211.733 434.115C195.05 430.726 167.98 425.229 141.43 409.736C141.287 409.342 141.081 408.95 140.806 408.567C131.093 395.051 123.278 377.505 119.282 352.714C123.515 358.62 127.967 363.381 131.989 367.088C132.66 367.705 133.421 367.972 134.159 367.972C134.333 367.972 134.506 367.957 134.676 367.927C134.725 367.987 134.774 368.044 134.822 368.102C135.174 368.519 135.675 368.732 136.186 368.732C136.629 368.732 137.081 368.571 137.45 368.247C138.229 367.558 138.349 366.388 137.729 365.606L137.725 365.601C137.624 365.474 137.524 365.348 137.423 365.22C137.524 364.611 137.445 363.943 137.12 363.267C125.933 339.949 123.353 304.476 147.086 236.391C170.259 169.914 146.487 124.772 135.881 109.186C135.503 108.628 134.939 108.38 134.373 108.38C133.381 108.38 132.382 109.144 132.354 110.356C132.139 119.542 128.031 133.391 122.731 150.427C120.22 138.159 116.751 127.104 112.781 117.247C136.977 96.9178 178.66 70.6711 232.086 63.6873C239.538 62.7143 247.073 62.2278 254.635 62.2278C296.528 62.2278 339.311 77.1213 374.16 106.317C460.515 178.666 454.368 324.822 396.305 385.949C388.643 394.015 381.394 399.217 375.664 403.326C335.749 431.966 291.488 438.679 258.542 438.679ZM67.2282 302.404C64.5441 290.655 62.8018 278.584 61.9766 266.439C63.0519 278.433 64.7464 290.468 67.2282 302.404Z" fill="url(#paint0_linear_156_769)"/>
<path d="M73.005 64.5674C72.6046 61.9609 75.7397 60.2749 77.5369 62.1172C95.7869 80.8167 139.171 136.662 123.657 233.001C107.769 331.67 119.887 379.456 140.806 408.567C143.709 412.608 138.922 417.705 134.73 415.024C120.983 406.236 103.325 391.26 90.4035 367.317C30.5323 256.371 80.1241 110.915 73.005 64.5674Z" fill="#91B3FA"/>
<path d="M140.415 416.292C139.858 416.292 139.302 416.106 138.842 415.724C138.761 415.656 138.682 415.589 138.601 415.522C140.387 414.884 141.717 413.112 141.694 411.16C141.861 411.31 142.03 411.458 142.198 411.608L142.206 411.615C143.24 412.53 143.36 414.156 142.464 415.284C141.937 415.946 141.174 416.292 140.415 416.292Z" fill="white"/>
<path d="M138.601 415.522C128.371 406.958 119.182 396.899 111.677 385.609C107.91 379.911 104.568 373.916 101.635 367.718C100.185 364.612 98.7889 361.477 97.5325 358.28C96.2189 355.113 95.0833 351.838 94.0106 348.554C89.7211 335.376 87.8742 321.356 87.64 307.48C87.3931 293.574 88.5094 279.786 89.543 266.094C90.6511 252.4 91.7085 238.757 92.1976 225.096C92.7461 211.435 92.7311 197.771 92.4674 184.119C92.1528 170.469 91.4238 156.834 90.2934 143.243C89.2323 129.64 87.6861 116.092 85.8795 102.581C85.8304 102.209 86.0746 101.848 86.4384 101.768C86.4874 101.757 86.5362 101.752 86.5842 101.752C86.902 101.752 87.1808 101.98 87.2405 102.314C89.6374 115.739 91.529 129.276 93.0697 142.872C94.5466 156.477 95.605 170.15 96.2567 183.861C96.4133 187.29 96.5431 190.721 96.6542 194.154C96.7333 197.588 96.8186 201.023 96.8392 204.461C96.9187 211.334 96.8787 218.216 96.7187 225.097C96.4345 238.863 95.6 252.632 94.679 266.332C93.741 280.026 92.7451 293.679 93.0853 307.178C93.2547 313.923 93.7959 320.619 94.8294 327.208C95.8675 333.795 97.3982 340.268 99.3889 346.588C103.508 359.167 109.136 371.326 116.346 382.267C119.928 387.761 123.913 392.968 128.245 397.854C129.308 399.096 130.456 400.257 131.557 401.464C132.703 402.625 133.827 403.81 135.005 404.942C137.163 407.086 139.414 409.138 141.694 411.16C141.717 413.112 140.387 414.884 138.601 415.522Z" fill="#C0D6FC"/>
<path d="M132.354 110.356C132.398 108.454 134.837 107.651 135.881 109.186C146.487 124.772 170.259 169.914 147.086 236.391C123.353 304.476 125.933 339.949 137.12 363.267C138.673 366.503 134.628 369.519 131.989 367.088C123.332 359.109 112.678 346.244 106.52 327.606C77.9873 241.244 131.564 144.177 132.354 110.356Z" fill="#7D97F4"/>
<path d="M136.186 368.732C135.675 368.732 135.174 368.519 134.822 368.102C134.774 368.044 134.725 367.987 134.676 367.927C136.024 367.701 137.193 366.609 137.423 365.22C137.524 365.348 137.624 365.474 137.725 365.601L137.729 365.606C138.349 366.388 138.229 367.558 137.45 368.247C137.081 368.571 136.629 368.732 136.186 368.732Z" fill="url(#paint1_linear_156_769)"/>
<path d="M134.676 367.927C128.49 360.555 123.231 352.251 119.325 343.284C117.368 338.761 115.75 334.081 114.449 329.307C113.81 326.919 113.214 324.516 112.724 322.086C112.191 319.671 111.797 317.202 111.45 314.733C110.065 304.832 110.522 294.639 112.106 284.752C113.685 274.844 116.217 265.19 118.678 255.596C121.193 246.007 123.665 236.45 125.736 226.807C127.849 217.173 129.562 207.465 131.097 197.733C132.596 187.997 133.798 178.22 134.709 168.423C135.671 158.627 136.283 148.807 136.704 138.983C136.716 138.712 136.934 138.487 137.204 138.476C137.21 138.476 137.217 138.474 137.224 138.474C137.491 138.474 137.704 138.69 137.704 138.964C137.713 148.802 137.349 158.658 136.728 168.509C136.061 178.36 135.088 188.206 133.821 198.028C133.5 200.484 133.159 202.937 132.805 205.39C132.428 207.838 132.055 210.29 131.636 212.735C130.826 217.627 129.929 222.509 128.947 227.379C127.009 237.121 124.679 246.797 122.297 256.411C119.903 266.02 117.473 275.594 116.012 285.225C115.282 290.038 114.821 294.863 114.724 299.674C114.631 304.484 114.902 309.275 115.518 314.015C116.858 323.47 119.321 332.817 123.062 341.499C124.914 345.853 127.088 350.054 129.549 354.073C130.147 355.088 130.816 356.058 131.446 357.054C132.114 358.023 132.763 359.007 133.456 359.96C134.719 361.755 136.059 363.496 137.423 365.22C137.193 366.609 136.024 367.701 134.676 367.927Z" fill="#B3C4F9"/>
<path d="M431.447 419.632H82.8558C77.4707 419.632 73.1051 412.795 73.1051 404.361V340.942C73.1051 325.854 80.9151 313.623 90.5492 313.623C120.966 306.158 150.968 307.116 180.517 317.267C216.64 310.47 252.826 310.493 289.071 317.267C328.445 305.756 373.733 306.658 421.911 313.623C430.418 313.623 437.314 324.423 437.314 337.745V410.445C437.314 415.519 434.687 419.632 431.447 419.632Z" fill="url(#paint2_linear_156_769)"/>
<path d="M189.075 297.767C189.075 297.767 190.199 379.737 172.462 386.085C171.015 386.602 169.744 386.598 168.62 386.16C155.988 381.271 162.113 321.181 145.31 317.115H127.119C108.824 321.52 117.713 392.422 99.9715 386.079C98.974 385.724 98.0392 385.131 97.1583 384.325C97.1 384.27 97.0372 384.214 96.9787 384.159C82.3601 370.197 83.3578 297.757 83.3578 297.757C68.1101 273.172 72.0287 239.833 72.0287 239.833C70.6401 219.216 95.9361 201.966 110.627 210.953C119.646 216.473 129.748 218.744 136.214 219.682C141.562 218.907 149.4 217.218 157.053 213.534C158.652 212.765 160.248 211.908 161.807 210.953C176.497 201.966 201.794 219.216 200.404 239.833C200.404 239.833 204.319 273.182 189.075 297.767Z" fill="white"/>
<path d="M189.075 297.767C189.075 297.767 190.199 379.737 172.462 386.085C171.015 386.602 169.744 386.602 168.62 386.166C182.906 374.136 174.484 311.48 170.323 303.411C166.125 295.268 178.116 280.27 183.058 251.558C188.001 222.845 157.053 213.534 157.053 213.534C158.652 212.765 160.248 211.908 161.807 210.953C176.497 201.966 201.794 219.216 200.404 239.833C200.404 239.833 204.319 273.182 189.075 297.767Z" fill="#BDD0FB"/>
<path d="M131.078 317.115H127.119C108.825 321.52 117.713 392.422 99.9715 386.079C98.974 385.724 98.0392 385.131 97.1583 384.325C111.772 390.101 110.406 333.116 112.806 323.687C115.201 314.26 131.078 317.115 131.078 317.115Z" fill="#BDD0FB"/>
<path d="M307.295 301.077C307.295 301.077 308.418 383.049 290.681 389.395C289.233 389.914 287.962 389.908 286.838 389.472C274.206 384.582 280.332 324.492 263.528 320.425H245.338C227.043 324.83 235.933 395.733 218.19 389.391C217.193 389.035 216.257 388.441 215.377 387.636C215.318 387.58 215.256 387.526 215.197 387.469C200.58 373.508 201.577 301.069 201.577 301.069C186.329 276.483 190.248 243.143 190.248 243.143C188.858 222.526 214.155 205.278 228.845 214.264C237.864 219.783 247.966 222.055 254.434 222.993C259.78 222.217 267.619 220.53 275.271 216.844C276.871 216.077 278.466 215.22 280.026 214.264C294.716 205.278 320.012 222.526 318.624 243.143C318.624 243.143 322.538 276.492 307.295 301.077Z" fill="white"/>
<path d="M307.295 301.077C307.295 301.077 308.418 383.049 290.681 389.395C289.233 389.914 287.962 389.914 286.838 389.476C301.124 377.447 292.704 314.791 288.542 306.721C284.345 298.58 296.334 283.58 301.278 254.868C306.221 226.156 275.271 216.844 275.271 216.844C276.871 216.077 278.466 215.22 280.026 214.264C294.716 205.278 320.012 222.526 318.624 243.143C318.624 243.143 322.538 276.492 307.295 301.077Z" fill="#BDD0FB"/>
<path d="M249.296 320.425H245.338C227.043 324.83 235.933 395.733 218.19 389.391C217.193 389.035 216.257 388.441 215.377 387.636C229.991 393.412 228.625 336.426 231.024 326.999C233.42 317.57 249.296 320.425 249.296 320.425Z" fill="#BDD0FB"/>
<path d="M425.535 297.767C425.535 297.767 426.658 379.737 408.92 386.085C407.473 386.602 406.202 386.598 405.078 386.16C392.446 381.271 398.571 321.181 381.768 317.115H363.578C345.283 321.52 354.173 392.422 336.43 386.079C335.433 385.724 334.497 385.131 333.617 384.325C333.559 384.27 333.496 384.214 333.437 384.159C318.819 370.197 319.817 297.757 319.817 297.757C304.569 273.172 308.488 239.833 308.488 239.833C307.098 219.216 332.395 201.966 347.085 210.953C356.104 216.473 366.206 218.744 372.673 219.683C378.022 218.907 385.858 217.218 393.511 213.534C395.111 212.765 396.706 211.908 398.266 210.953C412.956 201.966 438.252 219.216 436.864 239.833C436.864 239.833 440.778 273.182 425.535 297.767Z" fill="white"/>
<path d="M425.535 297.767C425.535 297.767 426.658 379.737 408.921 386.085C407.473 386.602 406.202 386.602 405.078 386.166C419.364 374.136 410.943 311.48 406.782 303.411C402.585 295.268 414.574 280.27 419.518 251.558C424.461 222.845 393.511 213.534 393.511 213.534C395.111 212.765 396.706 211.908 398.266 210.953C412.956 201.966 438.252 219.216 436.864 239.833C436.864 239.833 440.778 273.182 425.535 297.767Z" fill="#BDD0FB"/>
<path d="M367.536 317.115H363.578C345.283 321.52 354.172 392.422 336.43 386.079C335.433 385.724 334.497 385.131 333.617 384.325C348.232 390.102 346.865 333.116 349.264 323.687C351.66 314.26 367.536 317.115 367.536 317.115Z" fill="#BDD0FB"/>
<path d="M132.373 257.74L117.499 258.155C112.34 258.299 108.148 262.303 108.148 267.1V289.174C108.148 293.969 112.34 297.693 117.499 297.492L132.373 296.911C137.473 296.713 141.597 292.701 141.597 287.95V266.084C141.597 261.334 137.473 257.598 132.373 257.74Z" fill="url(#paint3_linear_156_769)"/>
<path d="M129.824 265.756L120.065 266.05C117.257 266.135 114.978 268.319 114.978 270.931V284.885C114.978 287.496 117.257 289.528 120.065 289.426L129.824 289.066C132.613 288.964 134.869 286.776 134.869 284.181V270.305C134.869 267.708 132.613 265.671 129.824 265.756Z" fill="url(#paint4_linear_156_769)"/>
<path d="M254.086 254.344L240.221 254.731C235.415 254.864 231.508 258.726 231.508 263.355V284.663C231.508 289.293 235.415 292.892 240.221 292.705L254.086 292.163C258.841 291.979 262.686 288.109 262.686 283.523V262.408C262.686 257.822 258.841 254.21 254.086 254.344Z" fill="url(#paint5_linear_156_769)"/>
<path d="M251.71 262.08L242.615 262.354C239.997 262.433 237.872 264.54 237.872 267.061V280.531C237.872 283.051 239.997 285.018 242.615 284.921L251.71 284.586C254.309 284.491 256.414 282.381 256.414 279.875V266.477C256.414 263.97 254.309 262.001 251.71 262.08Z" fill="url(#paint6_linear_156_769)"/>
<path d="M362.71 251.311L349.717 251.674C345.213 251.801 341.552 255.535 341.552 260.015V280.639C341.552 285.12 345.213 288.609 349.717 288.434L362.71 287.927C367.167 287.753 370.771 284.012 370.771 279.571V259.128C370.771 254.687 367.167 251.187 362.71 251.311Z" fill="url(#paint7_linear_156_769)"/>
<path d="M360.484 258.799L351.96 259.057C349.507 259.131 347.516 261.168 347.516 263.608V276.647C347.516 279.086 349.507 280.992 351.96 280.902L360.484 280.588C362.919 280.499 364.892 278.458 364.892 276.031V263.061C364.892 260.633 362.919 258.726 360.484 258.799Z" fill="url(#paint8_linear_156_769)"/>
<path d="M365.387 251.311L352.394 251.674C347.889 251.801 344.229 255.535 344.229 260.015V280.639C344.229 285.12 347.889 288.609 352.394 288.434L365.387 287.927C369.844 287.753 373.448 284.012 373.448 279.571V259.128C373.448 254.687 369.844 251.187 365.387 251.311Z" fill="#7D97F4"/>
<path d="M127.674 280.12L127.526 275.063C128.769 275.027 253.017 271.388 358.783 267.323L358.977 272.379C253.187 276.445 128.917 280.084 127.674 280.12Z" fill="url(#paint9_linear_156_769)"/>
<path d="M363.159 258.799L354.636 259.057C352.183 259.131 350.193 261.168 350.193 263.608V276.647C350.193 279.086 352.183 280.992 354.636 280.902L363.159 280.588C365.596 280.499 367.567 278.458 367.567 276.031V263.061C367.567 260.633 365.596 258.726 363.159 258.799Z" fill="url(#paint10_linear_156_769)"/>
<path d="M135.05 257.74L120.175 258.155C115.017 258.299 110.824 262.303 110.824 267.1V289.174C110.824 293.969 115.017 297.693 120.175 297.492L135.05 296.911C140.15 296.713 144.274 292.701 144.274 287.95V266.084C144.274 261.334 140.15 257.598 135.05 257.74Z" fill="#91B3FA"/>
<path d="M256.763 254.344L242.898 254.731C238.092 254.864 234.185 258.726 234.185 263.355V284.663C234.185 289.293 238.092 292.892 242.898 292.705L256.763 292.163C261.518 291.979 265.363 288.109 265.363 283.523V262.408C265.363 257.822 261.518 254.21 256.763 254.344Z" fill="#91B3FA"/>
<path d="M132.501 265.756L122.742 266.05C119.934 266.135 117.654 268.319 117.654 270.931V284.885C117.654 287.496 119.934 289.528 122.742 289.426L132.501 289.066C135.288 288.964 137.546 286.776 137.546 284.181V270.305C137.546 267.708 135.288 265.671 132.501 265.756Z" fill="url(#paint11_linear_156_769)"/>
<path d="M254.387 262.08L245.29 262.354C242.673 262.433 240.549 264.54 240.549 267.061V280.531C240.549 283.051 242.673 285.018 245.29 284.921L254.387 284.586C256.985 284.491 259.089 282.381 259.089 279.875V266.477C259.089 263.97 256.985 262.001 254.387 262.08Z" fill="url(#paint12_linear_156_769)"/>
<path d="M241.741 182.167L248.233 183.752C256.144 186.135 262.829 186.743 268.543 186.137C286.388 184.249 294.764 170.503 301.396 161.76C310.152 150.218 319.819 152.213 319.819 152.213L313.903 177.681C300.664 198.776 281.726 199.78 268.996 197.369C260.893 195.834 255.305 192.916 255.305 192.916C240.402 188.577 241.741 182.167 241.741 182.167Z" fill="#7D97F4"/>
<path d="M227.049 194.555C227.098 193.237 227.745 192.013 228.806 191.229L239.156 183.577C239.156 183.577 238.945 182.049 236.066 181.721C233.187 181.395 233.038 178.305 233.038 178.305C233.038 178.305 237.036 179.005 242.943 180.232C246.321 180.933 248.679 183.108 250.081 184.842L248.123 189.528C241.555 193.522 234.453 195.805 226.962 196.845L227.049 194.555Z" fill="url(#paint13_linear_156_769)"/>
<path d="M381.446 335.493L330.063 337.48V318.697L373.454 314.724L381.446 335.493Z" fill="url(#paint14_linear_156_769)"/>
<path d="M328.701 93.6065C328.701 93.6065 341.764 97.961 350.225 116.623C352.539 121.725 365.102 122.631 366.399 133.097C367.067 138.501 371.066 142.829 376.449 143.654C389.854 145.709 410.513 152.669 413.818 175.943C416.341 193.709 407.284 200.445 397.78 202.776C390.799 204.489 386.16 211.279 387.573 218.328C388.927 225.086 386.907 232.902 375.197 239.081C348.953 252.929 322.745 206.275 322.745 206.275L317.373 124.814L328.701 93.6065Z" fill="url(#paint15_linear_156_769)"/>
<path d="M405.185 421.806L406.244 430.516C406.445 432.168 407.745 433.474 409.399 433.664C412.191 433.982 416.672 434.31 421.057 433.846C422.981 433.643 424.23 431.694 423.644 429.85C422.575 426.488 420.62 421.441 417.8 418.47H408.139C406.352 418.47 404.968 420.032 405.185 421.806Z" fill="url(#paint16_linear_156_769)"/>
<path d="M329.507 319.772L327.875 329.367C327.875 329.367 333.337 384.685 334.307 406.813C334.46 410.282 333.563 413.71 331.743 416.667L322.245 432.088L346.38 417.846L346.861 414.902L342.91 409.469L348.085 347.497C348.39 343.857 347.638 340.206 345.922 336.981L340.929 327.604L329.507 319.772Z" fill="url(#paint17_linear_156_769)"/>
<path d="M320.656 434.322H328.358C329.799 434.322 331.159 433.66 332.039 432.518C334.439 429.398 339.414 423.311 341.792 423.152C344.995 422.938 344.585 434.322 344.585 434.322H346.38L348.654 420.177C349.226 416.617 347.455 413.092 344.26 411.423C344.26 411.423 343.528 416.837 339.559 419.232C335.59 421.625 323.407 430.201 323.407 430.201C323.407 430.201 321.915 429.988 320.278 430.284C317.848 430.724 318.187 434.322 320.656 434.322Z" fill="url(#paint18_linear_156_769)"/>
<path d="M362.563 324.329C362.563 324.329 394.557 385.019 399.643 398.876C404.729 412.732 406.511 424.291 406.578 425.385C406.685 427.096 408.813 428.737 414.677 428.737C417.704 428.737 419.185 427.524 419.911 426.349C420.53 425.348 420.562 424.094 420.04 423.038C418.19 419.292 412.317 407.323 410.142 401.895C407.545 395.412 401.958 366.039 398.895 355.825C395.83 345.612 392.368 334.534 379.026 324.329C379.026 324.329 369.867 315.359 362.563 324.329Z" fill="url(#paint19_linear_156_769)"/>
<path d="M342.352 224.885C334.098 189.914 355.005 170.135 355.005 170.135C346.559 162.027 333.667 156.748 325.485 154C320.633 152.369 315.283 153.483 311.501 156.933C304.93 162.93 295.788 173.04 297.563 181.602C299.158 189.294 313.685 227.678 313.685 227.678C313.685 227.678 327.117 234.035 342.352 224.885Z" fill="url(#paint20_linear_156_769)"/>
<path d="M360.65 242.2C357.291 232.081 342.352 224.886 342.352 224.886C327.117 234.035 313.685 227.678 313.685 227.678C313.685 227.678 310.673 239.193 312.751 249.894C314.83 260.594 327.875 329.367 327.875 329.367C348.43 333.531 380.042 325.175 380.042 325.175C366.949 301.931 364.008 252.317 360.65 242.2Z" fill="url(#paint21_linear_156_769)"/>
<path d="M332.772 128.6L339.481 158.739C340.124 161.394 337.704 160.96 335.02 160.453C330.624 159.624 324.96 157.918 323.066 154.497C322.873 154.15 322.776 153.756 322.722 153.361L319.84 132.462C319.611 130.803 320.507 129.194 322.038 128.516L327.6 126.05C329.741 125.1 332.221 126.322 332.772 128.6Z" fill="url(#paint22_linear_156_769)"/>
<path d="M315.206 104.573C315.206 104.573 309.543 111.08 309.736 123.768C309.93 136.458 315.884 139.447 320.757 137.873C325.629 136.299 332.389 132.869 336.33 122.682C340.272 112.495 322.737 96.4596 315.206 104.573Z" fill="url(#paint23_linear_156_769)"/>
<path d="M328.795 119.543C328.795 119.543 326.796 101.818 313.33 108.186L311.259 111.927C311.259 111.927 302.255 105.962 308.358 98.0256C314.462 90.089 325.505 88.7736 334.247 97.9515C342.987 107.129 347.128 114.109 343.965 122.094C340.802 130.079 335.569 125.341 335.569 125.341C335.569 125.341 336.299 118.962 333.763 116.982C331.226 115.003 329.844 119.566 329.844 119.566L328.795 119.543Z" fill="url(#paint24_linear_156_769)"/>
<path d="M331.119 120.491C331.119 120.491 330.038 111.384 335.185 112.702C340.332 114.022 335.747 121.329 333.815 123.912L331.119 120.491Z" fill="url(#paint25_linear_156_769)"/>
<path d="M322.449 94.5769C325.596 95.6078 328.407 97.4933 330.961 99.5755C333.522 101.673 335.743 104.167 337.617 106.88C339.495 109.594 341.008 112.559 342.063 115.683C342.59 117.245 343.009 118.837 343.318 120.462C343.635 122.088 343.899 123.751 344.404 125.383C344.896 127.007 345.695 128.617 346.922 129.864C348.121 131.131 349.596 132.047 351.074 132.848C352.558 133.647 354.074 134.338 355.499 135.147C356.931 135.941 358.236 136.911 359.399 138.047C361.73 140.315 363.408 143.206 364.255 146.35C364.705 147.93 365.047 149.577 365.641 151.193C366.22 152.799 367.147 154.403 368.536 155.528C369.9 156.673 371.543 157.36 373.178 157.832C374.822 158.298 376.485 158.574 378.125 158.854C381.398 159.371 384.584 160.224 387.623 161.499C390.648 162.779 393.52 164.457 396.027 166.576C398.534 168.685 400.678 171.252 402.132 174.181C403.596 177.096 404.286 180.414 403.854 183.646C403.407 186.854 401.985 190 399.574 192.186C398.38 193.279 396.962 194.138 395.404 194.586C393.844 195.026 392.175 195.081 390.569 194.81C387.361 194.306 384.287 192.253 383.081 189.158L382.837 189.248C384.019 192.474 387.166 194.674 390.485 195.263C392.152 195.578 393.895 195.558 395.553 195.127C397.213 194.685 398.736 193.805 400.017 192.678C402.598 190.396 404.094 187.1 404.589 183.745C405.067 180.357 404.361 176.86 402.861 173.823C401.368 170.766 399.167 168.098 396.597 165.904C394.026 163.702 391.09 161.961 387.995 160.624C384.895 159.297 381.605 158.395 378.3 157.85C376.66 157.559 375.032 157.275 373.472 156.819C371.92 156.36 370.429 155.712 369.237 154.695C368.036 153.691 367.203 152.332 366.647 150.818C366.077 149.307 365.724 147.685 365.252 146.065C364.342 142.78 362.539 139.717 360.071 137.354C358.844 136.17 357.442 135.148 355.954 134.338C354.474 133.514 352.95 132.832 351.495 132.061C350.046 131.29 348.648 130.426 347.542 129.271C346.411 128.139 345.672 126.687 345.187 125.136C344.694 123.585 344.419 121.949 344.089 120.31C343.764 118.664 343.322 117.028 342.772 115.439C341.671 112.256 340.106 109.243 338.171 106.492C336.203 103.768 333.895 101.284 331.255 99.213C328.623 97.1564 325.751 95.314 322.524 94.3289L322.449 94.5769Z" fill="#91B3FA"/>
<path d="M340.163 117.408C340.268 119.554 340.396 121.709 340.792 123.845C341.181 125.973 341.805 128.111 342.964 130.015C343.542 130.96 344.245 131.845 345.061 132.604C345.872 133.367 346.76 134.02 347.652 134.635C349.454 135.845 351.201 137.011 352.797 138.399C355.978 141.127 358.652 144.542 359.491 148.628C360.447 152.671 360.187 157.144 361.984 161.369C362.895 163.461 364.412 165.264 366.181 166.633C367.953 168.016 369.957 169.026 372.022 169.787C376.181 171.288 380.493 171.818 384.628 172.759C388.724 173.689 392.827 175.253 395.728 178.287C397.131 179.783 398.372 181.636 398.395 183.701C398.414 185.776 397.453 187.767 396.508 189.671L396.736 189.794C397.794 187.949 398.91 185.984 398.989 183.704C399.023 182.576 398.724 181.443 398.233 180.446C397.744 179.442 397.102 178.531 396.375 177.694C393.371 174.365 389.093 172.636 384.92 171.565C380.725 170.457 376.435 169.954 372.512 168.468C370.559 167.729 368.693 166.76 367.088 165.484C365.48 164.212 364.171 162.613 363.373 160.755C361.706 157.009 361.881 152.598 360.857 148.305C360.356 146.144 359.426 144.036 358.131 142.233C356.859 140.406 355.283 138.833 353.582 137.46C351.898 136.069 350.031 134.896 348.239 133.761C346.443 132.623 344.819 131.31 343.702 129.547C342.542 127.821 341.841 125.794 341.372 123.726C340.903 121.654 340.66 119.52 340.422 117.388L340.163 117.408Z" fill="#91B3FA"/>
<path d="M325.818 181.904L338.435 154.039C343.817 155.419 355.147 170.443 355.147 170.443C355.147 170.443 344.214 215.633 355.005 227.674C364.585 238.361 388.594 316.594 393.869 334.038C394.125 334.885 393.991 335.803 393.5 336.539C393.011 337.276 392.217 337.756 391.336 337.846L365.077 340.55C363.629 340.699 362.286 339.774 361.911 338.367L324.48 198.16C323.035 192.749 323.508 187.007 325.818 181.904Z" fill="#BDD0FB"/>
<path d="M297.338 185.774C297.338 185.774 292.902 170.474 313.02 155.729C313.02 155.729 321.698 149.123 322.722 153.361L315.559 187.667L337.794 339.321C337.937 340.298 337.583 341.283 336.85 341.947C336.117 342.611 335.102 342.865 334.143 342.625L328.67 341.257C327.57 340.982 326.724 340.104 326.488 338.996C323.376 324.354 302.699 225.776 308.765 219.28C308.765 219.28 296.844 188.811 297.338 185.774Z" fill="#7D97F4"/>
<path d="M355.147 170.443C355.147 170.443 368.297 223.483 340.243 233.563C312.189 243.646 276.245 217.784 276.245 217.784C276.245 217.784 270.109 214.716 266.603 215.593C263.096 216.469 263.534 203.319 270.109 199.813C276.685 196.306 284.136 211.209 284.136 211.209C284.136 211.209 345.782 241.921 340.163 189.088C340.163 189.088 331.915 171.321 355.147 170.443Z" fill="#BDD0FB"/>
<path d="M315.641 247.604L300.389 194.341C300.217 193.736 299.701 193.295 299.077 193.222C296.313 192.9 288.306 191.995 279.061 191.213C267.924 190.271 254.992 189.508 247.264 190.156C246.166 190.249 245.501 191.411 245.989 192.399C250.384 201.29 268.461 237.456 277.513 249.303C277.813 249.695 278.276 249.926 278.771 249.921L314.158 249.592C315.187 249.582 315.926 248.594 315.641 247.604Z" fill="url(#paint26_linear_156_769)"/>
<path d="M277.478 186.594L266.42 184.752C265.831 184.655 265.349 185.217 265.536 185.784L266.631 189.101C266.726 189.389 266.978 189.598 267.279 189.639L277.92 191.061C278.47 191.133 278.925 190.633 278.798 190.093L278.12 187.197C278.047 186.885 277.794 186.647 277.478 186.594Z" fill="url(#paint27_linear_156_769)"/>
<path d="M285.759 195.957L284.848 191.212C284.756 190.736 284.363 190.376 283.881 190.328L261.546 188.061C260.795 187.984 260.193 188.674 260.369 189.408L261.79 195.321C261.903 195.794 262.314 196.135 262.801 196.16L284.625 197.259C285.337 197.294 285.892 196.655 285.759 195.957Z" fill="url(#paint28_linear_156_769)"/>
<path d="M311.957 234.736C311.957 234.736 314.082 226 313.225 222.9C312.368 219.801 310.708 215.815 305.173 216.701C299.637 217.586 293.108 219.918 293.108 219.918C293.108 219.918 293.438 223.956 297.644 222.652L295.036 224.671C295.036 224.671 295.41 227.903 298.962 226.177L296.536 228.853C296.536 228.853 298.062 231.508 300.677 229.806C303.29 228.102 304.543 235.787 311.957 234.736Z" fill="url(#paint29_linear_156_769)"/>
<path d="M334.354 234.054H334.388C347.159 234.054 352.044 224.387 352.092 224.286C352.263 223.926 352.11 223.95 351.751 223.779C351.391 223.609 350.959 223.988 350.787 224.348C350.743 224.441 346.201 233.771 334.322 234.315C333.923 234.334 333.615 233.819 333.633 234.217C333.651 234.605 333.97 234.054 334.354 234.054Z" fill="url(#paint30_linear_156_769)"/>
<path d="M329.695 217.298C329.809 217.298 329.922 217.272 330.03 217.216C344.233 209.81 340.579 188.671 340.416 187.775C340.345 187.384 339.968 187.12 339.577 187.194C339.185 187.264 338.924 187.64 338.995 188.032C339.032 188.243 342.619 209.023 329.361 215.935C329.007 216.12 328.871 216.555 329.054 216.91C329.183 217.156 329.435 217.298 329.695 217.298Z" fill="url(#paint31_linear_156_769)"/>
<path d="M323.659 186.135C326.094 178.369 338.435 154.039 338.435 154.039L343.426 157.251L334.291 185.879C333.899 187.106 332.757 187.941 331.468 187.941C330.782 187.941 330.214 188.473 330.17 189.158L328.588 213.547C328.588 213.547 321.224 193.9 323.659 186.135Z" fill="url(#paint32_linear_156_769)"/>
<path d="M309.904 178.925C309.514 177.982 309.468 176.933 309.778 175.962L317.373 152.1L322.035 148.376L322.549 152.1L318.329 174.396L319.819 215.031L311.929 193.208C311.543 192.143 311.593 190.968 312.066 189.938L312.546 188.896C313.05 187.803 313.074 186.55 312.612 185.438L309.904 178.925Z" fill="#BDD0FB"/>
<defs>
<linearGradient id="paint0_linear_156_769" x1="490.457" y1="552.284" x2="149.985" y2="129.441" gradientUnits="userSpaceOnUse">
<stop stop-color="#DAE3FE"/>
<stop offset="1" stop-color="#E9EFFD"/>
</linearGradient>
<linearGradient id="paint1_linear_156_769" x1="490.456" y1="552.284" x2="149.986" y2="129.441" gradientUnits="userSpaceOnUse">
<stop stop-color="#ECF1FE"/>
<stop offset="1" stop-color="#F4F7FE"/>
</linearGradient>
<linearGradient id="paint2_linear_156_769" x1="318.969" y1="-198.931" x2="287.663" y2="82.8194" gradientUnits="userSpaceOnUse">
<stop stop-color="#89F9A8"/>
<stop offset="1" stop-color="#6DEF91"/>
</linearGradient>
<linearGradient id="paint3_linear_156_769" x1="156.205" y1="259.136" x2="106.077" y2="288.569" gradientUnits="userSpaceOnUse">
<stop stop-color="#4F52FF"/>
<stop offset="1" stop-color="#4042E2"/>
</linearGradient>
<linearGradient id="paint4_linear_156_769" x1="147.491" y1="254.991" x2="123.015" y2="279.466" gradientUnits="userSpaceOnUse">
<stop stop-color="#53D8FF"/>
<stop offset="1" stop-color="#3840F7"/>
</linearGradient>
<linearGradient id="paint5_linear_156_769" x1="276.263" y1="260.081" x2="232.114" y2="280.316" gradientUnits="userSpaceOnUse">
<stop stop-color="#4F52FF"/>
<stop offset="1" stop-color="#4042E2"/>
</linearGradient>
<linearGradient id="paint6_linear_156_769" x1="268.578" y1="252.034" x2="245.33" y2="275.282" gradientUnits="userSpaceOnUse">
<stop stop-color="#53D8FF"/>
<stop offset="1" stop-color="#3840F7"/>
</linearGradient>
<linearGradient id="paint7_linear_156_769" x1="397.823" y1="255.036" x2="361.493" y2="267.913" gradientUnits="userSpaceOnUse">
<stop stop-color="#53D8FF"/>
<stop offset="1" stop-color="#3840F7"/>
</linearGradient>
<linearGradient id="paint8_linear_156_769" x1="376.654" y1="249.372" x2="354.476" y2="271.55" gradientUnits="userSpaceOnUse">
<stop stop-color="#53D8FF"/>
<stop offset="1" stop-color="#3840F7"/>
</linearGradient>
<linearGradient id="paint9_linear_156_769" x1="127.526" y1="273.721" x2="358.976" y2="273.721" gradientUnits="userSpaceOnUse">
<stop stop-color="#4F52FF"/>
<stop offset="1" stop-color="#4042E2"/>
</linearGradient>
<linearGradient id="paint10_linear_156_769" x1="379.165" y1="207.306" x2="323.059" y2="380.222" gradientUnits="userSpaceOnUse">
<stop stop-color="#53D8FF"/>
<stop offset="1" stop-color="#3840F7"/>
</linearGradient>
<linearGradient id="paint11_linear_156_769" x1="135.476" y1="205.549" x2="122.599" y2="323.279" gradientUnits="userSpaceOnUse">
<stop stop-color="#4F52FF"/>
<stop offset="1" stop-color="#4042E2"/>
</linearGradient>
<linearGradient id="paint12_linear_156_769" x1="267.356" y1="169.145" x2="231.485" y2="382.532" gradientUnits="userSpaceOnUse">
<stop stop-color="#4F52FF"/>
<stop offset="1" stop-color="#4042E2"/>
</linearGradient>
<linearGradient id="paint13_linear_156_769" x1="207.949" y1="167.187" x2="313.053" y2="247.592" gradientUnits="userSpaceOnUse">
<stop stop-color="#FEBBBA"/>
<stop offset="1" stop-color="#FF928E"/>
</linearGradient>
<linearGradient id="paint14_linear_156_769" x1="340.038" y1="309.512" x2="377.917" y2="363.127" gradientUnits="userSpaceOnUse">
<stop stop-color="#4F52FF"/>
<stop offset="1" stop-color="#4042E2"/>
</linearGradient>
<linearGradient id="paint15_linear_156_769" x1="308.888" y1="40.6335" x2="347.276" y2="136.928" gradientUnits="userSpaceOnUse">
<stop stop-color="#09005D"/>
<stop offset="1" stop-color="#1A0F91"/>
</linearGradient>
<linearGradient id="paint16_linear_156_769" x1="405.162" y1="426.274" x2="423.789" y2="426.274" gradientUnits="userSpaceOnUse">
<stop stop-color="#09005D"/>
<stop offset="1" stop-color="#1A0F91"/>
</linearGradient>
<linearGradient id="paint17_linear_156_769" x1="326.45" y1="499.73" x2="353.257" y2="186.43" gradientUnits="userSpaceOnUse">
<stop stop-color="#FEBBBA"/>
<stop offset="1" stop-color="#FF928E"/>
</linearGradient>
<linearGradient id="paint18_linear_156_769" x1="318.62" y1="422.872" x2="348.761" y2="422.872" gradientUnits="userSpaceOnUse">
<stop stop-color="#09005D"/>
<stop offset="1" stop-color="#1A0F91"/>
</linearGradient>
<linearGradient id="paint19_linear_156_769" x1="380.373" y1="504.392" x2="407.187" y2="191.01" gradientUnits="userSpaceOnUse">
<stop stop-color="#FEBBBA"/>
<stop offset="1" stop-color="#FF928E"/>
</linearGradient>
<linearGradient id="paint20_linear_156_769" x1="416.743" y1="86.1578" x2="374.57" y2="135.132" gradientUnits="userSpaceOnUse">
<stop stop-color="#B2FDC7"/>
<stop offset="1" stop-color="#4DD372"/>
</linearGradient>
<linearGradient id="paint21_linear_156_769" x1="300.761" y1="212.666" x2="377.888" y2="341.653" gradientUnits="userSpaceOnUse">
<stop stop-color="#09005D"/>
<stop offset="1" stop-color="#1A0F91"/>
</linearGradient>
<linearGradient id="paint22_linear_156_769" x1="323.511" y1="190.91" x2="328.546" y2="154.071" gradientUnits="userSpaceOnUse">
<stop stop-color="#FEBBBA"/>
<stop offset="1" stop-color="#FF928E"/>
</linearGradient>
<linearGradient id="paint23_linear_156_769" x1="321.667" y1="149.853" x2="326.765" y2="60.3103" gradientUnits="userSpaceOnUse">
<stop stop-color="#FEBBBA"/>
<stop offset="1" stop-color="#FF928E"/>
</linearGradient>
<linearGradient id="paint24_linear_156_769" x1="300.226" y1="84.5377" x2="344.178" y2="124.38" gradientUnits="userSpaceOnUse">
<stop stop-color="#09005D"/>
<stop offset="1" stop-color="#1A0F91"/>
</linearGradient>
<linearGradient id="paint25_linear_156_769" x1="332.377" y1="150.462" x2="337.476" y2="60.9191" gradientUnits="userSpaceOnUse">
<stop stop-color="#FEBBBA"/>
<stop offset="1" stop-color="#FF928E"/>
</linearGradient>
<linearGradient id="paint26_linear_156_769" x1="250.643" y1="162.7" x2="151.107" y2="8.78709" gradientUnits="userSpaceOnUse">
<stop stop-color="#4F52FF"/>
<stop offset="1" stop-color="#4042E2"/>
</linearGradient>
<linearGradient id="paint27_linear_156_769" x1="288.961" y1="36.6703" x2="280.119" y2="116.249" gradientUnits="userSpaceOnUse">
<stop stop-color="#09005D"/>
<stop offset="1" stop-color="#1A0F91"/>
</linearGradient>
<linearGradient id="paint28_linear_156_769" x1="290.372" y1="36.8267" x2="281.53" y2="116.406" gradientUnits="userSpaceOnUse">
<stop stop-color="#09005D"/>
<stop offset="1" stop-color="#1A0F91"/>
</linearGradient>
<linearGradient id="paint29_linear_156_769" x1="313.429" y1="225.705" x2="293.109" y2="225.705" gradientUnits="userSpaceOnUse">
<stop stop-color="#FEBBBA"/>
<stop offset="1" stop-color="#FF928E"/>
</linearGradient>
<linearGradient id="paint30_linear_156_769" x1="342.14" y1="228.084" x2="344.677" y2="231.674" gradientUnits="userSpaceOnUse">
<stop stop-color="#DAE3FE"/>
<stop offset="1" stop-color="#E9EFFD"/>
</linearGradient>
<linearGradient id="paint31_linear_156_769" x1="329.194" y1="194.446" x2="340.299" y2="210.163" gradientUnits="userSpaceOnUse">
<stop stop-color="#DAE3FE"/>
<stop offset="1" stop-color="#E9EFFD"/>
</linearGradient>
<linearGradient id="paint32_linear_156_769" x1="323.164" y1="183.794" x2="343.426" y2="183.794" gradientUnits="userSpaceOnUse">
<stop stop-color="#DAE3FE"/>
<stop offset="1" stop-color="#E9EFFD"/>
</linearGradient>
</defs>
</svg>
