<svg width="95" height="94" viewBox="0 0 95 94" fill="none" xmlns="http://www.w3.org/2000/svg">
<path fill-rule="evenodd" clip-rule="evenodd" d="M63.7556 1.33025C64.9537 0.470292 66.3444 0 67.7441 0C69.1798 0.0166362 70.5744 0.481754 71.7326 1.33025L75.4412 3.9191L79.6403 4.47897H79.7119C82.6591 4.83953 84.977 7.21786 85.3801 10.1471C85.3845 10.1725 85.3992 10.1941 85.4141 10.2159C85.4295 10.2383 85.4449 10.2609 85.4495 10.2882H85.3801L86.2199 14.4872L88.8087 18.1981C90.5152 20.5853 90.4458 23.7453 88.8804 26.2468V26.3162L88.8087 26.3856L86.2199 30.0942L85.66 34.2932L92.6584 44.9285L94.9673 48.3594H84.2603L81.6715 54.3769L80.0613 58.2266L77.7524 54.7263L75.234 50.936C74.8268 51.7312 74.3888 52.5309 73.9191 53.3342C70.1976 59.6999 67.4392 66.5934 64.9299 72.8647L64.9298 72.8648C60.2724 84.5041 56.4727 94 48.9651 94C46.7486 94 45.2797 92.2143 44.3092 89.6265C42.2901 84.2422 42.429 75.3851 42.4835 71.9129C42.4874 71.6598 42.491 71.4352 42.4932 71.2428C42.4947 71.1113 42.4955 70.9949 42.4955 70.8944V70.8944C42.4955 67.6596 42.0334 63.9628 39.7229 63.9628C36.9502 63.9628 36.9502 68.1218 36.9502 70.8944V70.8945L36.9503 71.0162L36.9506 71.2937C36.9539 72.8375 36.9754 74.3398 36.9961 75.7879V75.788V75.7882V75.7883V75.7884C37.0791 81.5931 37.1496 86.5283 35.9869 89.7908C35.0386 92.4517 33.2699 94 30.0185 94C23.7248 94 21.6654 89.0411 17.1823 78.2462L17.1823 78.2462C14.4237 71.6038 10.7475 62.7518 4.60242 51.4857C-8.79884 26.9166 9.22351 1.11561 30.9428 9.89574C31.8844 10.0841 32.9795 10.7329 34.1656 11.4356C35.8899 12.4572 37.8064 13.5926 39.7229 13.5926C42.2616 13.5926 43.1107 12.9795 44.4184 12.0352C45.2529 11.4325 46.2743 10.6949 48.0409 9.89575C48.7892 9.55722 49.543 9.26708 50.2998 9.02371C50.6799 8.11716 51.2339 7.28894 51.9349 6.58792C52.9508 5.57203 54.2338 4.86487 55.6352 4.54839L55.7046 4.47897H55.7741L60.047 3.9191L63.7556 1.33025ZM54.0222 12.868L56.7684 8.86801L61.3056 8.25698L61.8655 8.1898L62.3559 7.8382L66.3444 4.96942C66.7207 4.7074 67.229 4.54839 67.7441 4.54839C68.2592 4.54839 68.7676 4.70516 69.1438 4.96942L73.1323 7.8382L73.6228 8.18756L74.1826 8.25922L79.0826 8.95794H79.1498C80.1576 9.06991 80.8563 9.77087 80.9705 10.7786V10.9175L81.882 15.8869L81.9492 16.3773L82.3008 16.7961L85.1695 20.7847C85.7048 21.5282 85.7742 22.789 85.1001 23.8639L81.9514 28.2735L81.8797 28.8334L81.181 33.7334V33.8005C81.1438 34.1505 81.024 34.4867 80.8317 34.7814L80.6906 34.8531V34.9203C80.3578 35.32 79.8804 35.572 79.3626 35.6212H79.2215L74.1132 36.5327L73.5533 36.5999L73.1323 36.9515L69.1438 39.8203C68.4003 40.3555 67.07 40.4249 65.9951 39.7509L62.3559 36.9515L61.9349 36.6021L61.3056 36.5305L56.4056 35.8318H56.3384C56.0218 35.8038 55.7165 35.7001 55.4483 35.5294C55.1801 35.3587 54.957 35.1259 54.7977 34.8509C54.6488 34.5926 54.5536 34.307 54.5177 34.0111V33.8722L53.6085 28.7639L53.5368 28.2041L53.1875 27.783L50.3187 23.7945C49.7834 23.051 49.714 21.7208 50.3881 20.6458L53.1875 17.0066L53.5368 16.5856L53.6063 15.9563L54.0222 12.868ZM45.6417 20.54C45.2689 20.6929 44.8689 20.8368 44.4401 20.9655C42.855 21.4415 41.2754 21.5926 39.7229 21.5926C35.7474 21.5926 32.4511 19.6908 31.0046 18.8562L30.9885 18.847C30.4973 18.5636 30.1698 18.3684 29.9044 18.2101C29.5784 18.0158 29.346 17.8773 29.0195 17.7001C28.9632 17.6695 28.9154 17.6444 28.8759 17.6241C28.5595 17.5395 28.2484 17.4355 27.9445 17.3126C21.0037 14.5068 14.9712 16.9831 11.2845 22.5835C7.47446 28.3714 6.24254 37.7859 11.6256 47.655C18.0013 59.3437 21.9094 68.7591 24.6681 75.4052C25.4904 77.3861 26.2105 79.121 26.8634 80.5968C27.7224 82.5383 28.3754 83.8198 28.878 84.6707C28.9894 83.4469 29.0369 81.9122 29.0369 79.9773C29.0369 78.7029 29.0177 77.3542 28.9966 75.8786L28.9966 75.8781L28.9944 75.7258C28.9728 74.2109 28.9502 72.5805 28.9502 70.8945L28.9501 70.8119L28.9499 70.6762C28.947 69.4376 28.9411 66.8268 29.5356 64.4485C29.8623 63.1421 30.5477 61.1107 32.1736 59.3042C34.057 57.2115 36.7267 55.9628 39.7229 55.9628C42.7448 55.9628 45.2696 57.2886 46.997 59.1515C48.5128 60.7861 49.2459 62.6272 49.6291 63.8863C50.3915 66.3916 50.4955 69.1021 50.4955 70.8943C50.4955 71.2471 50.4893 71.6868 50.4821 72.197C50.4472 74.6521 50.3892 78.7409 50.8919 82.6365C50.9458 83.054 51.0036 83.4451 51.0642 83.8101C52.0673 82.328 53.1756 80.2022 54.4636 77.2687C55.3098 75.3413 56.2255 73.0549 57.2282 70.5514L57.2283 70.5513C59.8125 64.099 62.9743 56.2045 67.0127 49.2966C67.9679 47.6629 68.7555 46.0717 69.393 44.5279C67.8864 44.8708 66.272 44.6913 64.8037 44.0887L57.7359 54.7263L55.4269 58.2266L53.8168 54.3769L51.2279 48.3594H40.5209L42.8298 44.9285L50.0387 33.9439L49.3378 30.092L46.6795 26.3834C45.4584 24.675 45.1466 22.5355 45.6417 20.54ZM86.6409 43.8805L83.21 38.6311H83.2078C82.2797 39.3773 81.1683 39.8607 79.9896 40.0308C79.9624 40.0353 79.9403 40.0508 79.9185 40.0661C79.8972 40.081 79.8762 40.0958 79.8508 40.1002V40.0308L75.439 40.8012L74.3909 41.5693L79.1498 48.8476L80.6883 45.2801L81.2482 43.8805H86.6409ZM55.7763 40.3107C54.4723 40.1469 53.2507 39.5846 52.2782 38.7005L48.8496 43.8805H54.2378L54.7977 45.2801L56.3362 48.8476L61.0951 41.641L60.1164 40.8706L55.8457 40.3107H55.7763ZM28.726 17.5516C28.7259 17.5514 28.7321 17.554 28.7451 17.5599C28.7326 17.5548 28.7261 17.5518 28.726 17.5516ZM25.2926 20.1976C24.8565 18.4151 22.9616 17.3739 21.2595 18.06C19.0865 18.936 18.476 19.4554 16.9071 20.8667C14.7526 22.8047 13.1112 25.2459 12.1293 27.9724C11.1475 30.6989 10.8556 33.626 11.2798 36.4927C11.5441 38.2788 12.0812 40.0067 12.8669 41.618C13.6567 43.238 15.7329 43.53 17.179 42.4544C18.6251 41.3789 18.87 39.3374 18.2626 37.6406C18.0194 36.961 17.8425 36.2566 17.7361 35.5373C17.4695 33.7361 17.6529 31.8969 18.2698 30.1837C18.8868 28.4705 19.9181 26.9367 21.2719 25.719C21.8543 25.1951 22.4886 24.7367 23.1632 24.35C24.6465 23.4996 25.699 21.8583 25.2926 20.1976Z" fill="url(#paint0_linear_107_49)"/>
<defs>
<linearGradient id="paint0_linear_107_49" x1="47.4836" y1="0" x2="47.4226" y2="226.604" gradientUnits="userSpaceOnUse">
<stop stop-color="#FFF970"/>
<stop offset="1" stop-color="#F7C7FF"/>
</linearGradient>
</defs>
</svg>
