<svg width="101" height="94" viewBox="0 0 101 94" fill="none" xmlns="http://www.w3.org/2000/svg">
<path fill-rule="evenodd" clip-rule="evenodd" d="M5.5 3.5H95.5C96.6046 3.5 97.5 4.39543 97.5 5.5V60H3.5V5.5C3.5 4.39543 4.39543 3.5 5.5 3.5ZM101 5.5V60V63.5V71.5C101 74.5375 98.5376 77 95.5 77H64V82V82.2C68.5645 83.1266 72 87.1621 72 92C72 93.1046 71.1046 94 70 94H30.5C29.3955 94 28.5 93.1046 28.5 92C28.5 86.987 32.1888 82.8355 37 82.1118V82V77H5.5C2.46244 77 0 74.5375 0 71.5V63.5V60V5.5C0 2.46243 2.46243 0 5.5 0H95.5C98.5376 0 101 2.46243 101 5.5ZM37 73.5H40.5H60.5H64H95.5C96.6046 73.5 97.5 72.6045 97.5 71.5V63.5H3.5V71.5C3.5 72.6045 4.39543 73.5 5.5 73.5H37ZM40.5 77V82H60.5V77H40.5ZM44.43 14.6776C44.2672 14.6366 44.1073 14.5845 43.9516 14.5215C40.0129 12.9293 36.5543 14.3615 34.478 17.5156C32.3454 20.7553 31.7011 25.9463 34.6337 31.3229C37.98 37.4577 40.0247 42.3833 41.48 45.8892C41.9166 46.941 42.3002 47.8649 42.65 48.6555C43.4599 50.4861 43.9559 51.2879 44.3144 51.6635L44.3421 51.6929C44.4183 51.7743 44.4578 51.8165 44.6061 51.8336C44.637 51.716 44.671 51.5628 44.7038 51.3666C44.8338 50.5872 44.8825 49.5325 44.8825 48.0992C44.8825 47.4228 44.8723 46.7077 44.8612 45.9309L44.86 45.8487C44.8486 45.0494 44.8368 44.1933 44.8367 43.3086L44.8366 43.1981C44.8354 42.54 44.833 41.2288 45.1286 40.0464C45.29 39.4008 45.6213 38.4304 46.3912 37.575C47.2787 36.5889 48.5344 36.0004 49.9513 36.0004C51.3719 36.0004 52.5573 36.622 53.372 37.5006C54.0901 38.275 54.4442 39.1555 54.6335 39.7774C55.0102 41.0153 55.0659 42.3756 55.0659 43.3085C55.0659 43.4863 55.0627 43.711 55.0589 43.9738V43.9739V43.9741V43.9743V43.9744V43.9746V43.9748V43.975V43.975C55.0404 45.2653 55.0086 47.4741 55.2796 49.5744C55.3759 50.3208 55.4978 50.9307 55.6277 51.401C55.7087 51.3211 55.7966 51.2268 55.892 51.1154C56.6015 50.2878 57.3546 48.928 58.2456 46.8987C58.7049 45.8525 59.1959 44.6266 59.7301 43.2927L59.7305 43.2916L59.7306 43.2914C61.0894 39.8985 62.7276 35.8078 64.8348 32.2034C68.5767 25.8028 67.6179 20.5011 65.341 17.3774C62.9689 14.1232 59.1481 12.9683 55.8439 14.4631C55.2636 14.7256 55.0427 14.8849 54.6805 15.1462C54.5277 15.2564 54.3497 15.3848 54.109 15.5467C53.6687 15.8428 53.0747 16.1911 52.2762 16.4308C51.5086 16.6613 50.7338 16.7376 49.9513 16.7376C48.015 16.7376 46.391 15.8056 45.628 15.3654C45.3863 15.2259 45.2159 15.1245 45.074 15.04L45.0736 15.0398L45.073 15.0394L45.073 15.0394L45.0729 15.0393C44.8908 14.9309 44.7555 14.8503 44.5765 14.7532C44.5097 14.717 44.4615 14.6928 44.43 14.6776ZM45.3204 11.1356C33.8648 6.5046 24.3592 20.113 31.4275 33.0717C34.6686 39.0138 36.6076 43.6827 38.0626 47.1862C40.4271 52.8798 41.5133 55.4953 44.8329 55.4953C46.9908 55.4953 47.9104 54.2022 48.2879 52.074C48.5781 50.4372 48.5477 48.3064 48.5131 45.8898L48.5131 45.8895C48.5013 45.0601 48.4889 44.1969 48.4889 43.3086V43.308C48.4889 43.1665 48.4889 43.0181 48.4902 42.8656C48.5026 41.4417 48.6306 39.6525 49.9513 39.6525C51.0568 39.6525 51.36 41.257 51.4068 42.8286C51.4116 42.9895 51.4137 43.1501 51.4137 43.3086C51.4137 43.4391 51.4109 43.6209 51.4074 43.8455L51.4074 43.8457C51.3825 45.4301 51.3243 49.1401 51.9986 51.9509C52.4784 53.9507 53.3289 55.4953 54.826 55.4953C58.7858 55.4953 60.7899 50.4868 63.2464 44.3478L63.2464 44.3477C64.57 41.04 66.0248 37.4042 67.9877 34.0466C76.7622 19.0377 64.5754 6.50461 54.3386 11.1356C53.4068 11.5571 52.8681 11.9461 52.4279 12.264C51.7382 12.7621 51.2904 13.0854 49.9513 13.0854C48.9405 13.0854 47.9297 12.4866 47.0202 11.9478C46.3946 11.5771 45.817 11.2349 45.3204 11.1356ZM52.2178 41.807L52.2148 41.8179L52.2133 41.8244L52.2165 41.8136C52.2191 41.8043 52.2194 41.8018 52.2178 41.807ZM47.6456 41.9041L47.647 41.909C47.6391 41.8875 47.6396 41.8843 47.6456 41.9041ZM42.3402 16.5691C42.1102 15.629 41.1107 15.0798 40.213 15.4417C39.0669 15.9037 38.7449 16.1777 37.9174 16.922C36.781 17.9442 35.9153 19.2318 35.3974 20.6698C34.8795 22.1079 34.7256 23.6518 34.9494 25.1638C35.0888 26.1058 35.3721 27.0172 35.7864 27.8671C36.203 28.7215 37.2981 28.8755 38.0608 28.3082C38.8236 27.7409 38.9527 26.6642 38.6324 25.7692C38.504 25.4108 38.4108 25.0393 38.3546 24.6599C38.214 23.7099 38.3107 22.7398 38.6361 21.8362C38.9616 20.9326 39.5055 20.1236 40.2195 19.4813C40.5267 19.205 40.8613 18.9632 41.2171 18.7593C41.9994 18.3107 42.5546 17.4451 42.3402 16.5691ZM38.5 85.5C35.4264 85.5 32.8511 87.6333 32.174 90.5H68.3261C67.6489 87.6333 65.0736 85.5 62 85.5H38.5ZM42.75 65.125C41.7835 65.125 41 65.9085 41 66.875C41 67.8415 41.7835 68.625 42.75 68.625H57.7574C58.7239 68.625 59.5074 67.8415 59.5074 66.875C59.5074 65.9085 58.7239 65.125 57.7574 65.125H42.75ZM8.00001 29.5047C7.03351 29.5047 6.25001 28.7212 6.25001 27.7547V17.7454C6.25001 16.7789 7.03351 15.9954 8.00001 15.9954C8.96651 15.9954 9.75001 16.7789 9.75001 17.7454V27.7547C9.75001 28.7212 8.96651 29.5047 8.00001 29.5047ZM5.99997 12.75C5.99997 13.7165 6.78347 14.5 7.74997 14.5C8.71647 14.5 9.49997 13.7165 9.49997 12.75V11.75C9.49997 10.7835 8.71647 10 7.74997 10C6.78347 10 5.99997 10.7835 5.99997 11.75V12.75Z" fill="url(#paint0_linear_107_5)"/>
<defs>
<linearGradient id="paint0_linear_107_5" x1="50.5" y1="0" x2="50.5" y2="207" gradientUnits="userSpaceOnUse">
<stop stop-color="#FF4141"/>
<stop offset="1" stop-color="#FB83CB"/>
</linearGradient>
</defs>
</svg>
